<svg width="1509" height="1606" viewBox="0 0 1509 1606" fill="none" xmlns="http://www.w3.org/2000/svg">
<path d="M215.692 1605.29L0.485352 1424.81H1509L215.692 1605.29ZM460.668 1289.4V889.173H633.908L933.875 1289.4H1241.08L878.057 806.48C954.781 751.89 1012.17 674.334 1041.96 585.006C1071.74 495.677 1072.37 399.196 1043.75 309.487C1015.14 219.778 958.758 141.481 882.753 85.8959C806.747 30.3106 715.047 0.312251 620.884 0.230225L215.692 0.230225V1289.4H460.668ZM460.668 244.999H620.884C647.664 244.138 674.343 248.669 699.337 258.322C724.331 267.975 747.13 282.555 766.378 301.193C785.626 319.832 800.931 342.15 811.383 366.821C821.835 391.491 827.221 418.011 827.221 444.805C827.221 471.598 821.835 498.118 811.383 522.789C800.931 547.46 785.626 569.777 766.378 588.416C747.13 607.055 724.331 621.634 699.337 631.288C674.343 640.941 647.664 645.472 620.884 644.61H460.668V244.999Z" fill="#BF0000"/>
</svg>
