<svg width="32" height="32" viewBox="0 0 32 32" fill="none" xmlns="http://www.w3.org/2000/svg">
<path d="M0 8C0 3.58172 3.58172 0 8 0H24C28.4183 0 32 3.58172 32 8V24C32 28.4183 28.4183 32 24 32H8C3.58172 32 0 28.4183 0 24V8Z" fill="#343434"/>
<path d="M9 13C10.6569 13 12 11.6569 12 10C12 8.34315 10.6569 7 9 7C7.34315 7 6 8.34315 6 10C6 11.6569 7.34315 13 9 13ZM9 13V20C9 20.5304 9.21071 21.0391 9.58579 21.4142C9.96086 21.7893 10.4696 22 11 22H16M16 10H21C21.5304 10 22.0391 10.2107 22.4142 10.5858C22.7893 10.9609 23 11.4696 23 12V19M16 10L19 13M16 10L19 7M23 19C21.3431 19 20 20.3431 20 22C20 23.6569 21.3431 25 23 25C24.6569 25 26 23.6569 26 22C26 20.3431 24.6569 19 23 19ZM16 22L13 19M16 22L13 25" stroke="white" stroke-linecap="round" stroke-linejoin="round"/>
</svg>
