<svg width="63" height="63" viewBox="0 0 63 63" fill="none" xmlns="http://www.w3.org/2000/svg">
<path d="M0 44.9433H2.08786V36.7006L5.31956 43.8856C5.70002 44.7567 6.22125 45.0624 7.24598 45.0624C8.27072 45.0624 8.77078 44.7567 9.15124 43.8856L12.3829 36.7006V44.9428H14.4708V36.7144C14.4708 35.9107 14.1499 35.5223 13.4864 35.3225C11.9001 34.8283 10.837 35.2551 10.3546 36.3261L7.18446 43.4185L4.1142 36.3261C3.65302 35.2551 2.56873 34.8283 0.984375 35.3225C0.320906 35.5223 0 35.9107 0 36.7144L0 44.9433ZM16.2077 38.2333H18.2936V42.7747C18.2744 43.0208 18.3724 43.5996 19.5162 43.6188H24.0557V38.2102H26.1475C26.1573 38.2102 26.1435 45.5851 26.1435 45.6161C26.1548 47.4347 23.8883 47.829 22.8424 47.86H16.252V46.4563L22.8542 46.4543C24.1979 46.314 24.0384 45.6447 24.0384 45.4217V44.8739H19.6028C17.5381 44.8547 16.225 43.953 16.2077 42.9165C16.2058 42.8224 16.252 38.2796 16.2077 38.2333Z" fill="#00618A"/>
<path d="M27.7549 44.9432H33.7571C34.459 44.9432 35.1416 44.795 35.6835 44.5415C36.5872 44.1281 37.0272 43.565 37.0272 42.8287V41.3039C37.0272 40.702 36.5271 40.1389 35.5428 39.7658C35.0215 39.564 34.3778 39.4582 33.7566 39.4582H31.2263C30.3841 39.4582 29.9825 39.2043 29.8826 38.6432C29.8634 38.5757 29.8634 38.5221 29.8634 38.4547V37.5047C29.8634 37.4511 29.8634 37.3969 29.8826 37.33C29.9825 36.9033 30.2035 36.7822 30.9457 36.7148L31.1475 36.7015H37.1074V35.3115H31.2479C30.4058 35.3115 29.9638 35.3652 29.5617 35.4848C28.3179 35.8731 27.7756 36.4884 27.7756 37.5594V38.7765C27.7756 39.7127 28.8387 40.5164 30.6248 40.703L31.2268 40.73H33.3954C33.4761 40.73 33.5548 40.73 33.6163 40.7433C34.2778 40.797 34.5584 40.9181 34.7602 41.1587C34.864 41.2547 34.9236 41.3915 34.9197 41.5318V42.751C34.9197 42.8971 34.8197 43.0856 34.6199 43.2451C34.4393 43.4066 34.1376 43.5124 33.7374 43.5394L33.5164 43.5527H27.7549V44.9432ZM50.0495 42.5206C50.0495 43.9529 51.1146 44.7547 53.26 44.9161L53.864 44.9432H59.3031V43.5513H53.8236C52.599 43.5513 52.1374 43.2436 52.1374 42.5073V35.3086H50.0515V42.5201L50.0495 42.5206ZM38.36 42.5935V37.6312C38.36 36.3717 39.2465 35.6069 40.9957 35.3662C41.1824 35.3393 41.3707 35.3258 41.5593 35.3258H45.5199C45.7217 35.3258 45.9023 35.3391 46.1046 35.3662C47.8543 35.6064 48.7388 36.3717 48.7388 37.6312V42.5935C48.7388 43.6162 48.3638 44.1626 47.497 44.5199L49.5544 46.3754H47.1298L45.4667 44.8738L43.7923 44.9796H41.5603C41.1454 44.9783 40.7327 44.92 40.3337 44.8063C39.0053 44.4451 38.361 43.7471 38.361 42.5935H38.36ZM40.6133 42.4724C40.6133 42.5398 40.6325 42.6068 40.6536 42.688C40.7747 43.2648 41.3171 43.5857 42.1415 43.5857H44.0374L42.2956 42.0132H44.7201L46.239 43.3859C46.5195 43.2358 46.7021 43.0089 46.7676 42.715C46.7868 42.6476 46.7868 42.5807 46.7868 42.5132V37.7548C46.7868 37.7011 46.7868 37.6337 46.7676 37.5663C46.6465 37.0298 46.1041 36.7222 45.2989 36.7222H42.142C41.2172 36.7222 40.6138 37.1238 40.6138 37.7548L40.6133 42.4724Z" fill="#E48E00"/>
<path d="M61.1388 32.9999C59.8567 32.9654 58.8758 33.0845 58.0376 33.4384C57.7993 33.5383 57.4184 33.5403 57.38 33.8385C57.5109 33.9769 57.5321 34.1826 57.6359 34.3499C57.8358 34.6748 58.1744 35.1074 58.4761 35.3343L59.4969 36.0647C60.1235 36.4471 60.8253 36.6667 61.4312 37.0491C61.787 37.276 62.1404 37.5605 62.4884 37.8164C62.6597 37.9414 62.7749 38.1393 62.9998 38.218V38.1816C62.8827 38.0315 62.8517 37.8258 62.7439 37.6702L62.2689 37.1953C61.8057 36.58 61.2171 36.0396 60.5905 35.5897C60.0905 35.2319 58.9757 34.7476 58.766 34.1668L58.7296 34.1304C59.0835 34.092 59.4989 33.9631 59.8237 33.8764C60.3735 33.7283 60.8637 33.7667 61.4292 33.6205L62.1965 33.3995V33.2553C61.9101 32.961 61.7063 32.5726 61.3928 32.3054C60.5777 31.6114 59.6854 30.9154 58.7665 30.3347C58.2571 30.0138 57.6286 29.8061 57.0881 29.5329C56.9075 29.4409 56.5881 29.3946 56.467 29.2405C56.1845 28.8793 56.0304 28.4215 55.8114 28.0002L54.4982 25.2277C54.2216 24.5953 54.0405 23.9702 53.6945 23.4032C52.0393 20.6789 50.2551 19.035 47.492 17.4202C46.9058 17.0761 46.196 16.9413 45.4504 16.7646L44.245 16.6917C44.0009 16.5879 43.7469 16.2881 43.5166 16.1439C42.6016 15.5651 40.2538 14.3081 39.5751 15.9613C39.1484 17.0052 40.2155 18.0241 40.5979 18.5532C40.8651 18.9243 41.2092 19.3397 41.3997 19.7566C41.5266 20.0297 41.5478 20.3044 41.6556 20.5948C41.9209 21.3099 42.1517 22.0866 42.4958 22.7481C42.669 23.0828 42.859 23.4347 43.0785 23.7325C43.2129 23.9151 43.4437 23.9978 43.4801 24.2803C43.2552 24.5958 43.2419 25.084 43.1149 25.4837C42.544 27.2811 42.7591 29.5152 43.5899 30.8475C43.8439 31.2551 44.4433 32.1316 45.2682 31.7955C45.9893 31.5011 45.8279 30.5921 46.0336 29.7883C46.0818 29.6077 46.0528 29.4728 46.1434 29.3518V29.3882L46.8009 30.7013C47.2872 31.4839 48.1485 32.301 48.8794 32.8527C49.2599 33.1391 49.5582 33.6353 50.0484 33.8026V33.7642H50.012C49.916 33.618 49.7678 33.5565 49.6468 33.4374C49.3603 33.1569 49.0428 32.8089 48.8086 32.4875C48.1431 31.5858 47.555 30.5975 47.0204 29.5688C46.7645 29.0786 46.5415 28.5362 46.3265 28.0366C46.2438 27.8442 46.2457 27.5523 46.0725 27.4539C45.8362 27.8191 45.4883 28.1154 45.3052 28.548C45.0128 29.2381 44.9764 30.0822 44.8666 30.9553L44.7938 30.9917C44.2863 30.8687 44.1072 30.346 43.9192 29.8976C43.4403 28.7631 43.3522 26.9346 43.773 25.6294C43.8808 25.2912 44.373 24.2256 44.1731 23.9146C44.0791 23.603 43.7656 23.4224 43.5904 23.1842C43.3613 22.8647 43.1655 22.5227 43.0062 22.1634C42.6159 21.2769 42.4332 20.2852 42.0218 19.3909C41.8259 18.9622 41.4932 18.5295 41.22 18.1491C40.9163 17.7283 40.5777 17.4187 40.3434 16.9088C40.2607 16.7281 40.1475 16.4377 40.2706 16.2512C40.309 16.1262 40.3666 16.0745 40.4896 16.0342C40.7012 15.8707 41.2914 16.0878 41.5104 16.1784C42.0966 16.4225 42.5853 16.6533 43.081 16.9821C43.3172 17.1396 43.5579 17.4453 43.8463 17.5299H44.1751C44.6885 17.6471 45.2633 17.5644 45.7442 17.7105C46.5922 17.968 47.3536 18.3701 48.0417 18.8066C50.1448 20.1331 51.8641 22.0231 53.0404 24.2783C53.2309 24.6415 53.3116 24.9875 53.4789 25.3724C53.8156 26.1491 54.2384 26.9489 54.5731 27.7084C54.9077 28.4678 55.2326 29.2312 55.7036 29.8617C55.9517 30.1924 56.9109 30.3691 57.3455 30.5537C57.6512 30.6826 58.1513 30.817 58.4397 30.9922C58.9934 31.3249 59.5279 31.7207 60.0472 32.0864C60.3046 32.2709 61.1009 32.6711 61.1413 32.9994L61.1388 32.9999ZM44.8292 19.0995C44.6085 19.0959 44.3882 19.1204 44.1736 19.1723V19.2088H44.21C44.337 19.4721 44.562 19.6414 44.7195 19.8663L45.0847 20.6317L45.1211 20.5972C45.348 20.4378 45.4499 20.1818 45.4499 19.7935C45.3578 19.6975 45.346 19.5784 45.2673 19.4647C45.1634 19.3126 44.9621 19.2285 44.8292 19.0995Z" fill="#00618A"/>
</svg>
