<svg width="143" height="33" viewBox="0 0 143 33" fill="none" xmlns="http://www.w3.org/2000/svg">
<g clip-path="url(#clip0_353_1542)">
<path d="M88.249 10.4859L88.2449 10.4832C88.2449 10.4832 88.2427 10.4818 88.2399 10.4818C88.1445 10.4406 88.0418 10.4191 87.9379 10.4186C87.7758 10.4205 87.6174 10.467 87.4799 10.553C87.3355 10.6418 87.2219 10.7729 87.1544 10.9284V10.9323L83.9583 19.6015L81.4948 13.7908L81.4912 13.7883C81.422 13.6258 81.2979 13.5003 81.1572 13.4131C81.0134 13.3242 80.8476 13.2771 80.6786 13.2771C80.5108 13.2771 80.3547 13.3292 80.2165 13.4142C80.0808 13.5014 79.958 13.6258 79.8891 13.7883L79.8874 13.791L77.419 19.6054L74.2057 10.94H74.203C74.1482 10.7806 74.0403 10.6449 73.8973 10.5557C73.7579 10.4674 73.5965 10.4199 73.4314 10.4186C73.3234 10.4189 73.2164 10.4404 73.1166 10.4818H73.1117L73.1081 10.4859C72.9633 10.5528 72.8408 10.6598 72.755 10.7942C72.6692 10.9286 72.6238 11.0848 72.6242 11.2443C72.6244 11.346 72.6444 11.4469 72.6841 11.5472H72.683L76.6358 22.0658V22.0694C76.6664 22.1477 76.7097 22.2255 76.7737 22.3017C76.8201 22.356 76.8882 22.4018 76.9583 22.4399C77.0081 22.4887 77.0722 22.5206 77.1412 22.5309C77.2115 22.5543 77.3051 22.588 77.4303 22.588C77.5903 22.588 77.7387 22.5309 77.8717 22.4462C78.0063 22.3583 78.1102 22.2307 78.1688 22.081L78.179 22.0732L80.6783 16.1519L83.1812 22.0492H83.1839C83.2416 22.2065 83.3428 22.3295 83.4604 22.417C83.5845 22.5094 83.7238 22.5665 83.8714 22.588H83.9762C84.0761 22.588 84.1732 22.5692 84.2548 22.5375C84.3308 22.5078 84.4023 22.4677 84.4673 22.4183C84.6012 22.3153 84.7056 22.1786 84.7696 22.0222V22.0189L88.697 11.5472C88.7358 11.4471 88.7553 11.3467 88.7555 11.2459C88.7546 11.0836 88.7062 10.9251 88.6162 10.79C88.5262 10.655 88.3985 10.5492 88.249 10.4859ZM70.1798 16.4909C70.1798 15.2556 69.7012 14.137 68.9401 13.3292C68.1746 12.5199 67.1379 12.0252 66.0121 12.0252C64.8857 12.0252 63.8466 12.5199 63.0827 13.3292C62.3199 14.137 61.8413 15.2556 61.8413 16.4906C61.8413 17.7248 62.3199 18.833 63.0827 19.6354C63.8468 20.441 64.8857 20.9281 66.0121 20.9281C67.1379 20.9281 68.1781 20.4412 68.9401 19.6357C69.7015 18.833 70.1798 17.7248 70.1798 16.4909ZM70.158 12.2029C71.2151 13.3138 71.8573 14.8382 71.8601 16.4909C71.8573 18.1433 71.2151 19.6661 70.158 20.7772C69.1089 21.8868 67.6435 22.5883 66.0146 22.5883C64.398 22.5883 62.9304 21.8868 61.8775 20.7772C60.781 19.6191 60.1699 18.0848 60.1699 16.4899C60.1699 14.8951 60.781 13.3608 61.8775 12.2026C62.9304 11.0945 64.398 10.393 66.0146 10.393C67.6435 10.393 69.1089 11.0948 70.158 12.2029ZM53.5158 10.4145C52.2055 10.4145 51.009 10.9207 50.1158 11.7284V11.2457C50.1162 11.0295 50.0336 10.8215 49.8852 10.6644C49.81 10.5857 49.7197 10.523 49.6197 10.4801C49.5196 10.4371 49.412 10.4148 49.3031 10.4145C49.1912 10.4135 49.0801 10.435 48.9766 10.4777C48.8731 10.5203 48.7792 10.5832 48.7004 10.6628C48.5491 10.819 48.4647 11.0281 48.465 11.2457V22.0084L48.4995 22.0426L48.5009 22.0479C48.5097 22.0834 48.5326 22.1223 48.5569 22.1604C48.6731 22.3636 48.8642 22.5133 49.0893 22.5775L49.1224 22.588H49.3031C49.4234 22.588 49.5448 22.5626 49.6601 22.5091C49.7561 22.4636 49.8455 22.3902 49.9172 22.2961L49.9199 22.2975C49.9288 22.2887 49.9315 22.2771 49.9417 22.2686C49.9457 22.2664 49.9492 22.2633 49.9517 22.2594C49.9964 22.2023 50.0339 22.1441 50.0568 22.0895C50.077 22.033 50.0941 21.9755 50.1081 21.9171L50.1158 21.8865V15.4241C50.1373 14.532 50.5043 13.6832 51.1395 13.0564C51.7699 12.4266 52.6247 12.0731 53.5158 12.0735C54.4579 12.0735 55.2981 12.4492 55.9075 13.0564C56.2197 13.3647 56.4674 13.732 56.6361 14.137C56.8048 14.542 56.8911 14.9766 56.8901 15.4153V21.7615C56.8901 21.9932 56.99 22.2079 57.1412 22.3546C57.2999 22.5043 57.5098 22.5877 57.7279 22.5877C57.9461 22.5877 58.156 22.5043 58.3147 22.3546C58.4706 22.2079 58.5655 21.9932 58.5655 21.7615V15.4153C58.5655 12.676 56.3081 10.4186 53.5158 10.4148M136.008 15.3138C135.532 13.4001 133.836 12.0366 131.902 12.0407C129.918 12.0407 128.246 13.3748 127.727 15.3138H136.008ZM137.842 16.0978V16.18C137.842 16.4095 137.738 16.6164 137.581 16.7521C137.425 16.889 137.221 16.9601 137.002 16.9626H127.611C127.85 19.2335 129.68 20.9108 131.865 20.9281H132.418C133.141 20.9306 133.845 20.6832 134.465 20.2738C135.085 19.8683 135.621 19.3011 135.999 18.6771C136.072 18.5508 136.18 18.4479 136.31 18.3803C136.43 18.3155 136.565 18.2819 136.701 18.2826C136.85 18.2826 136.997 18.3207 137.126 18.3979L137.135 18.4018L137.146 18.4095C137.381 18.5806 137.529 18.8421 137.529 19.1287C137.529 19.2743 137.49 19.423 137.409 19.5571L137.407 19.5626L137.404 19.5648C136.879 20.3919 136.164 21.1463 135.314 21.6931C134.463 22.2407 133.477 22.5883 132.418 22.5883H131.856C130.207 22.5767 128.718 21.8868 127.644 20.7836C126.531 19.6411 125.91 18.1086 125.913 16.5138C125.913 14.8255 126.578 13.2937 127.658 12.1852C128.738 11.0782 130.239 10.3932 131.902 10.3932C133.488 10.3932 134.914 11.0183 135.97 12.0421C137.026 13.0655 137.715 14.4868 137.838 16.0862L137.842 16.0978ZM99.3194 5.38386C99.0904 5.38386 98.8808 5.47903 98.7299 5.62855C98.652 5.7048 98.5901 5.79577 98.5477 5.89617C98.5053 5.99657 98.4833 6.1044 98.483 6.21338V21.7615C98.483 21.9883 98.5784 22.1963 98.7299 22.3436C98.8874 22.4982 99.0987 22.5859 99.3194 22.5883C99.7942 22.5883 100.178 22.2178 100.181 21.7615V6.2131C100.178 5.75517 99.7942 5.38359 99.3194 5.38359M44.5925 16.1938C43.9166 15.8782 43.1503 15.6448 42.3853 15.3938C41.6813 15.1579 40.9671 14.9574 40.4576 14.6937C40.2019 14.5579 40.0024 14.4148 39.873 14.2537C39.7412 14.0928 39.6772 13.929 39.6733 13.7058C39.6747 13.4001 39.7644 13.1541 39.9153 12.9361C40.1442 12.6101 40.5282 12.3563 40.9478 12.1924C41.3624 12.0283 41.8118 11.9508 42.1329 11.9508C43.0824 11.9521 43.6827 12.2652 44.1434 12.5897C44.371 12.7535 44.5633 12.9193 44.7448 13.0564C44.8383 13.1276 44.9252 13.1921 45.0264 13.2401C45.1222 13.287 45.235 13.3254 45.3577 13.3254C45.4358 13.3254 45.5141 13.3113 45.5853 13.2812C45.6609 13.2509 45.7263 13.2073 45.7892 13.1543C45.8515 13.0969 45.9026 13.0284 45.9401 12.9524C45.9723 12.8767 45.9888 12.7952 45.9886 12.713C45.9886 12.5657 45.9412 12.4274 45.8733 12.2978C45.7467 12.0697 45.5519 11.8517 45.3039 11.6335C44.9354 11.3088 44.4493 10.9993 43.9257 10.7662C43.4008 10.5328 42.838 10.3742 42.3017 10.3742C41.0593 10.3742 40.0215 10.6531 39.2675 11.167C38.8747 11.4357 38.5293 11.7298 38.2849 12.1359C38.0366 12.5428 37.8984 13.0451 37.8805 13.6981C37.8796 13.7275 37.8792 13.7566 37.8794 13.7855C37.8766 14.42 38.0827 14.9425 38.4063 15.3519C38.8979 15.9684 39.6275 16.3372 40.3428 16.5988C41.0568 16.8597 41.7707 17.0159 42.2215 17.1654C42.8559 17.3745 43.5304 17.6015 44.0217 17.9019C44.2664 18.0556 44.4645 18.2206 44.5991 18.4018C44.7296 18.5883 44.8033 18.7808 44.8063 19.0247V19.0426C44.8049 19.3949 44.7004 19.6716 44.5274 19.9086C44.2664 20.2611 43.8322 20.5196 43.3715 20.6832C42.9125 20.8432 42.435 20.9108 42.1277 20.9108C41.0438 20.9108 40.3186 20.6514 39.7925 20.3921C39.5288 20.2611 39.3153 20.1317 39.1219 20.0225C39.0311 19.9712 38.9376 19.9252 38.8416 19.8846C38.7462 19.8436 38.6436 19.8223 38.5398 19.8219C38.468 19.8215 38.3967 19.8344 38.3296 19.86C38.2617 19.8888 38.1993 19.9292 38.1453 19.9794C38.0717 20.0481 38.0103 20.1288 37.9638 20.2181C37.9206 20.3066 37.8983 20.4037 37.8984 20.5022C37.8984 20.6644 37.9597 20.8128 38.0471 20.9472C38.1839 21.1411 38.3848 21.3149 38.6355 21.4887C38.894 21.6597 39.2027 21.8286 39.5583 21.9949C40.3467 22.3637 41.3575 22.5566 42.1255 22.5692H42.1277C43.3221 22.5692 44.353 22.2964 45.222 21.6625V21.6608H45.2234C46.073 21.0269 46.6016 20.0846 46.6016 19.0208C46.6016 18.436 46.4634 17.9403 46.2217 17.5345C45.857 16.9193 45.2645 16.5138 44.5925 16.1938ZM111.94 16.4909C111.94 15.244 111.465 14.1268 110.706 13.3204C109.948 12.5163 108.908 12.0283 107.77 12.0255C106.642 12.0255 105.605 12.5163 104.84 13.3204C104.08 14.1268 103.599 15.244 103.599 16.4909C103.599 17.7361 104.08 18.8462 104.84 19.6459C105.601 20.4462 106.642 20.9281 107.77 20.9281C108.911 20.9281 109.951 20.4462 110.709 19.6487C111.465 18.8459 111.94 17.7372 111.94 16.4909ZM113.363 10.6241C113.442 10.7014 113.505 10.7938 113.549 10.8959C113.592 10.998 113.614 11.1078 113.614 11.2186V21.7615C113.612 21.9804 113.524 22.1897 113.368 22.3436C113.21 22.4984 112.999 22.5861 112.778 22.5883C112.548 22.5883 112.336 22.4903 112.188 22.3436C112.11 22.268 112.048 22.1775 112.005 22.0776C111.963 21.9776 111.94 21.8702 111.94 21.7615V20.7328C110.886 21.8603 109.407 22.5883 107.77 22.5883C106.141 22.5883 104.675 21.8945 103.624 20.7836C102.57 19.6779 101.925 18.1546 101.925 16.4909C101.925 14.8272 102.57 13.3025 103.624 12.1957C104.675 11.0857 106.141 10.3932 107.77 10.3932C109.406 10.3932 110.886 11.1 111.94 12.2219V11.2186C111.94 10.9869 112.036 10.7726 112.191 10.6241C112.35 10.475 112.56 10.3924 112.778 10.3932C112.999 10.3932 113.21 10.4782 113.363 10.6241ZM125.178 11.6931C125.345 11.5295 125.436 11.3124 125.436 11.0972C125.435 10.9883 125.411 10.8808 125.367 10.7814C125.322 10.682 125.258 10.593 125.177 10.5199H125.178C125.177 10.5149 125.173 10.5149 125.173 10.5149C125.172 10.511 125.169 10.5097 125.169 10.5097H125.167C125.012 10.3554 124.803 10.268 124.585 10.2663C124.368 10.2663 124.157 10.3554 123.996 10.5149L117.453 16.8346V6.2131C117.453 5.75517 117.066 5.38359 116.591 5.38359C116.363 5.38359 116.153 5.47876 116.003 5.62828C115.854 5.77697 115.755 5.98607 115.755 6.2131V21.7612C115.755 21.988 115.854 22.196 116.003 22.3433C116.16 22.4983 116.371 22.5861 116.591 22.588C117.066 22.588 117.453 22.2175 117.453 21.7612V19.1957L119.584 17.0865L123.927 22.2799C124.009 22.399 124.12 22.4812 124.23 22.5246C124.356 22.5714 124.477 22.588 124.586 22.588C124.735 22.588 124.947 22.5563 125.133 22.4114L125.143 22.4054L125.154 22.3938C125.328 22.2239 125.426 21.9982 125.426 21.7676C125.426 21.5734 125.354 21.3756 125.22 21.2172V21.2145L120.798 15.8879L125.175 11.6928L125.178 11.6931ZM95.867 5.42083H95.6802C95.6554 5.42083 95.6317 5.42331 95.6057 5.42414C95.5828 5.42331 95.5583 5.42083 95.5343 5.42083C95.0518 5.42083 94.5834 5.47517 94.1456 5.61945C93.7141 5.76179 93.3166 5.99655 93.0082 6.35269L93.0068 6.35131L93.0057 6.35269V6.35407C92.6871 6.70524 92.4769 7.1251 92.3492 7.60207C92.2212 8.08152 92.1685 8.62166 92.1635 9.23517V10.4241H90.8416C90.3823 10.4263 90.0176 10.7902 90.0176 11.2305C90.0151 11.4584 90.1019 11.6782 90.2595 11.8429C90.4164 12.0033 90.6276 12.0992 90.8515 12.1119H92.1635V21.7817L92.1621 21.8043C92.1621 22.0313 92.2582 22.2404 92.4132 22.3905C92.5663 22.5375 92.7817 22.625 93.0159 22.625C93.2324 22.6235 93.4394 22.5363 93.5917 22.3825C93.744 22.2286 93.8291 22.0207 93.8284 21.8043V12.1119H95.2499C95.4727 12.1011 95.6836 12.0079 95.8416 11.8503C95.9961 11.6972 96.091 11.4818 96.091 11.2481V11.2167C96.0857 10.7814 95.7186 10.4239 95.259 10.4239H93.8284V9.24041C93.8375 8.71683 93.8924 8.32483 93.9718 8.03959C94.0485 7.75269 94.1536 7.57283 94.2479 7.46138C94.3404 7.36234 94.4604 7.27986 94.6562 7.21365C94.8535 7.15048 95.126 7.10993 95.4948 7.10993H95.5382C95.5597 7.10993 95.5828 7.10607 95.6033 7.10607C95.6289 7.10607 95.6529 7.10993 95.6802 7.10993H95.867C96.3387 7.10993 96.7194 6.732 96.7194 6.26524C96.7194 5.79848 96.3387 5.42083 95.867 5.42083ZM142.121 10.4043C142.121 11.4942 141.384 12.4043 140.155 12.4043C138.933 12.4043 138.206 11.4857 138.206 10.4043C138.206 9.31407 138.933 8.40428 140.155 8.40428C141.384 8.40428 142.121 9.31407 142.121 10.4043ZM141.731 10.4043C141.731 9.47738 141.108 8.7731 140.155 8.7731C139.219 8.7731 138.595 9.44262 138.595 10.4043C138.595 11.3223 139.219 12.0346 140.155 12.0346C141.107 12.0346 141.731 11.3312 141.731 10.4043ZM139.383 9.50276H140.224C140.683 9.50276 140.986 9.75159 140.986 10.1378C140.986 10.3783 140.864 10.5585 140.683 10.6702L141.012 11.1419V11.2366H140.535L140.215 10.7814H139.843V11.2366H139.383V9.50276ZM140.215 9.92345H139.843V10.3783H140.215C140.388 10.3783 140.501 10.3011 140.501 10.1552C140.501 10.0007 140.397 9.92345 140.215 9.92345ZM13.4256 20.6807C14.4372 20.7524 15.2408 21.5745 15.275 22.5874L15.2761 22.655V30.4294C15.2761 31.5251 14.379 32.4128 13.2775 32.4128C12.193 32.4128 11.3125 31.561 11.2772 30.4961L11.2761 30.4294V26.0807L7.46918 28.257C6.51442 28.8073 5.29346 28.4815 4.73925 27.5353C4.19911 26.6068 4.50036 25.4222 5.4096 24.8583L5.47001 24.8225L12.265 20.9394C12.6165 20.7367 13.0213 20.6463 13.4256 20.6807ZM21.4645 20.8964L21.5431 20.9394L28.3368 24.8228C28.5637 24.9521 28.7628 25.1251 28.9225 25.3317C29.0823 25.5384 29.1995 25.7746 29.2676 26.0268C29.3356 26.279 29.3531 26.5421 29.3189 26.8011C29.2848 27.06 29.1997 27.3097 29.0686 27.5356C28.5288 28.4617 27.3464 28.7935 26.4005 28.2912L26.339 28.2572L22.5346 26.0807V30.4297C22.5346 31.5254 21.6402 32.4131 20.5332 32.4131C19.449 32.4131 18.5707 31.5612 18.5354 30.4964L18.5343 30.4297V22.655C18.5343 21.6114 19.3481 20.7543 20.3845 20.6807C20.7576 20.6488 21.1323 20.7236 21.4645 20.8964ZM3.81898 10.8172L3.88049 10.8509L10.6706 14.7364C11.1261 14.9941 11.4608 15.422 11.601 15.9262C11.6457 16.0823 11.6661 16.2379 11.6739 16.3941C11.6798 16.6128 11.649 16.831 11.5828 17.0396C11.443 17.4904 11.1459 17.876 10.7456 18.1262L10.6706 18.1712L3.88049 22.0592C2.92187 22.6059 1.70008 22.2823 1.14974 21.3364C0.889572 20.8915 0.814049 20.3625 0.939358 19.8626C1.06467 19.3627 1.38083 18.9318 1.82008 18.6622L1.88077 18.6263L5.67498 16.4575L1.88049 14.2829C0.922149 13.7348 0.594425 12.5248 1.14974 11.5778C1.68822 10.6495 2.87029 10.3182 3.81898 10.8172ZM32.6606 11.5778C33.2148 12.5251 32.8871 13.7348 31.9288 14.2829L28.1346 16.4575L31.929 18.6263C32.8874 19.1753 33.2151 20.3852 32.6609 21.3364C32.1081 22.2823 30.8849 22.6059 29.9299 22.0592L23.1348 18.1712C22.6819 17.9097 22.3671 17.5 22.2275 17.0396C22.1613 16.831 22.131 16.6128 22.1379 16.3941C22.1416 16.2383 22.1651 16.0823 22.2085 15.9262C22.3494 15.4235 22.6821 14.9963 23.1348 14.7364L29.9301 10.8509C30.8849 10.3041 32.1081 10.6294 32.6612 11.5778M17.3191 12.7494C17.4344 12.7494 17.5928 12.8142 17.6736 12.8964L20.4973 15.6917C20.5779 15.7714 20.6433 15.9301 20.6433 16.0443V16.8686C20.6433 16.9803 20.5779 17.1386 20.4973 17.2172L17.673 20.0126C17.5922 20.0948 17.4364 20.1621 17.3186 20.1621H16.4882C16.374 20.1621 16.2154 20.0948 16.1335 20.0126L13.3106 17.2172C13.23 17.1386 13.1644 16.98 13.1644 16.8686V16.0443C13.1644 15.9301 13.23 15.7714 13.3106 15.6917L16.1335 12.8964C16.2154 12.8142 16.374 12.7494 16.4882 12.7494H17.3191ZM16.9197 15.135H16.8879C16.774 15.135 16.6154 15.2012 16.5359 15.2807L15.7183 16.0873C15.6364 16.1709 15.5735 16.3284 15.5735 16.4412V16.473C15.5735 16.5844 15.6364 16.7406 15.7183 16.8217L16.5359 17.6308C16.6165 17.7108 16.774 17.7764 16.8879 17.7764H16.9197C17.0339 17.7764 17.1928 17.7105 17.273 17.6308L18.091 16.8217C18.1715 16.7406 18.2405 16.5844 18.2405 16.473V16.4412C18.2405 16.3281 18.1715 16.1709 18.091 16.0873L17.273 15.2807C17.1925 15.201 17.0339 15.135 16.9197 15.135ZM20.5332 0.5C21.6173 0.5 22.4979 1.35214 22.5335 2.41393L22.5346 2.48069V6.83076L26.339 4.652C27.2951 4.10414 28.5172 4.4291 29.0686 5.37614C29.3275 5.82149 29.4022 6.35037 29.2767 6.85C29.1512 7.34963 28.8355 7.78046 28.3969 8.05062L28.3368 8.08648L21.5428 11.9734C21.1916 12.1744 20.7878 12.2645 20.3845 12.2319C19.3707 12.1577 18.5696 11.3345 18.5354 10.3226L18.5343 10.2548V2.48069C18.5343 1.388 19.4264 0.5 20.5332 0.5ZM13.2775 0.5C14.3564 0.5 15.2394 1.35214 15.275 2.41393L15.2761 2.48069V10.2545C15.2761 11.2972 14.4595 12.1557 13.4259 12.2316C13.0522 12.2617 12.6774 12.1869 12.3439 12.0156L12.265 11.9728L5.47001 8.08621C5.24311 7.95717 5.04403 7.78443 4.88429 7.57798C4.72455 7.37154 4.60731 7.13547 4.53936 6.88344C4.47141 6.63141 4.45409 6.36841 4.4884 6.10964C4.52271 5.85088 4.60797 5.60148 4.73925 5.37586C5.2816 4.44897 6.46284 4.11793 7.40767 4.61779L7.46891 4.65172L11.2758 6.83048V2.48041C11.2761 1.38828 12.1701 0.5 13.2775 0.5Z" fill="#29B5E8"/>
</g>
<defs>
<clipPath id="clip0_353_1542">
<rect width="141.25" height="32" fill="white" transform="translate(0.875 0.5)"/>
</clipPath>
</defs>
</svg>
