<svg width="16" height="16" viewBox="0 0 16 16" fill="none" xmlns="http://www.w3.org/2000/svg">
<path d="M3.3335 6C4.43807 6 5.3335 5.10457 5.3335 4C5.3335 2.89543 4.43807 2 3.3335 2C2.22893 2 1.3335 2.89543 1.3335 4C1.3335 5.10457 2.22893 6 3.3335 6ZM3.3335 6V10M3.3335 10C2.22893 10 1.3335 10.8954 1.3335 12C1.3335 13.1046 2.22893 14 3.3335 14C4.43807 14 5.3335 13.1046 5.3335 12C5.3335 10.8954 4.43807 10 3.3335 10ZM8.00016 2V14M12.6668 6C13.7714 6 14.6668 5.10457 14.6668 4C14.6668 2.89543 13.7714 2 12.6668 2C11.5623 2 10.6668 2.89543 10.6668 4C10.6668 5.10457 11.5623 6 12.6668 6ZM12.6668 6C12.6661 6.84326 12.4876 7.67689 12.1429 8.44652C11.7983 9.21615 11.2954 9.90449 10.6668 10.4667" stroke="#646464" stroke-linecap="round" stroke-linejoin="round"/>
</svg>
