<svg width="16" height="16" viewBox="0 0 16 16" fill="none" xmlns="http://www.w3.org/2000/svg">
<path d="M14 3.33333C14 4.4379 11.3137 5.33333 8 5.33333C4.68629 5.33333 2 4.4379 2 3.33333M14 3.33333C14 2.22876 11.3137 1.33333 8 1.33333C4.68629 1.33333 2 2.22876 2 3.33333M14 3.33333V5.33333M2 3.33333L2.00004 12.6667C1.99633 12.9873 2.22391 13.3035 2.6636 13.5886C3.10329 13.8738 3.7422 14.1195 4.52647 14.3051C5.31074 14.4908 6.21739 14.6108 7.16999 14.6552C8.12259 14.6995 9.09321 14.6669 10 14.56M14 8L12 11.3333H14.6667L12.6667 14.6667M2 8C2.00096 8.31168 2.22046 8.61898 2.64097 8.89737C3.06148 9.17576 3.67137 9.41753 4.42198 9.6034C5.17258 9.78927 6.04312 9.91409 6.96414 9.9679C7.88516 10.0217 8.83116 10.003 9.72667 9.91333" stroke="#646464" stroke-linecap="round" stroke-linejoin="round"/>
</svg>
