<svg width="24" height="25" viewBox="0 0 24 25" fill="none" xmlns="http://www.w3.org/2000/svg">
<path d="M12 20.5H21M15 5.5L18 8.5M16.376 4.12198C16.7741 3.72389 17.314 3.50024 17.877 3.50024C18.44 3.50024 18.9799 3.72389 19.378 4.12198C19.7761 4.52007 19.9997 5.05999 19.9997 5.62298C19.9997 6.18596 19.7761 6.72589 19.378 7.12398L7.36798 19.135C7.13007 19.3729 6.836 19.5469 6.51298 19.641L3.64098 20.479C3.55493 20.5041 3.46372 20.5056 3.37689 20.4833C3.29006 20.4611 3.2108 20.4159 3.14742 20.3525C3.08404 20.2892 3.03887 20.2099 3.01662 20.1231C2.99437 20.0362 2.99588 19.945 3.02098 19.859L3.85898 16.987C3.9532 16.6643 4.12722 16.3706 4.36498 16.133L16.376 4.12198Z" stroke="#343434" stroke-linecap="round" stroke-linejoin="round"/>
</svg>
