<svg width="757" height="734" viewBox="0 0 757 734" fill="none" xmlns="http://www.w3.org/2000/svg">
<path d="M501.312 326.319C503.515 324.165 505.719 322.012 508.414 319.521C509.371 318.584 509.835 317.984 510.299 317.383C510.299 317.383 510.31 317.313 510.66 317.21C516.486 310.943 522.018 304.826 527.39 298.571C528.508 297.269 529.03 295.456 529.827 293.878C529.827 293.878 529.91 293.911 530.224 293.892C530.967 293.209 531.398 292.544 531.829 291.879C531.829 291.879 531.911 291.912 532.241 291.884C535.446 287.978 538.32 284.1 541.195 280.222C541.195 280.222 541.046 280.067 541.438 280.084C542.284 279.46 542.739 278.819 543.194 278.178C543.194 278.178 543.508 277.881 543.896 277.54C549.806 270.992 550.225 267.07 545.908 262.012C545.862 260.984 545.816 259.957 545.853 258.085C545.803 251.753 545.671 246.265 545.538 240.778C545.61 240.079 545.682 239.381 546.041 238.138C549.824 232.808 553.002 227.738 556.933 223.341C559.352 220.635 562.922 218.957 565.974 216.817C566.376 216.738 566.777 216.659 567.884 216.611C575.688 216.477 582.788 216.311 589.887 216.145C590.542 216.289 591.197 216.433 592.345 216.907C597.405 219.604 601.972 221.97 606.538 224.337C606.538 224.337 606.629 224.373 606.782 224.706C609.25 227.575 611.884 229.894 613.799 232.703C616.219 236.254 618.053 240.203 620.14 243.981C620.213 248.355 620.286 252.73 619.979 257.723C617.319 263.794 615.038 269.247 612.757 274.699C612.757 274.699 612.797 274.81 612.443 274.803C611.652 275.44 611.215 276.084 610.778 276.728C610.778 276.728 610.852 276.881 610.48 276.837C609.67 277.446 609.231 278.099 608.792 278.753C608.792 278.753 608.897 278.934 608.481 278.88C597.893 288.045 585.928 289.568 572.911 287.374C567.669 286.49 562.46 284.431 557.974 290.768C551.699 299.631 544.061 307.526 537.084 315.899C536.335 316.799 536.096 318.124 535.621 319.251C535.529 319.4 535.437 319.548 534.905 319.937C534.051 320.834 533.638 321.492 533.224 322.149C533.224 322.149 533.143 322.143 532.821 322.165C532.075 322.842 531.651 323.496 531.227 324.151C531.227 324.151 531.146 324.145 530.823 324.169C530.075 324.845 529.65 325.497 529.226 326.149C529.226 326.149 529.144 326.147 528.811 326.183C523.911 331.395 519.345 336.57 514.779 341.746C514.779 341.746 514.921 341.884 514.527 341.862C513.679 342.471 513.225 343.101 512.771 343.732C512.771 343.732 512.891 343.865 512.507 343.848C511.67 344.46 511.217 345.089 510.764 345.717C510.764 345.717 510.851 345.832 510.484 345.835C509.667 346.465 509.217 347.092 508.768 347.719C508.768 347.719 508.845 347.833 508.484 347.841C507.673 348.474 507.223 349.099 506.773 349.724C506.773 349.724 506.851 349.848 506.487 349.846C505.677 350.477 505.23 351.11 504.784 351.743C504.784 351.743 504.878 351.877 504.487 351.904C500.638 355.632 497.06 359.229 493.758 363.064C490.714 366.6 487.967 370.391 485.089 374.07C485.089 374.07 485.02 374.004 484.714 374.023C483.974 374.721 483.538 375.4 483.103 376.079C483.103 376.079 483.028 376.017 482.724 376.045C481.986 376.742 481.552 377.411 481.118 378.08C480.54 378.595 479.963 379.11 478.901 379.882C476.854 382.314 475.292 384.489 473.73 386.663C473.73 386.663 473.746 386.744 473.394 386.745C472.607 387.389 472.172 388.032 471.737 388.676C471.737 388.676 471.767 388.766 471.384 388.784C465.809 395.061 460.573 401.286 455.471 407.619C454.737 408.529 454.645 409.955 454.256 411.143C453.732 411.759 453.207 412.376 452.291 413.406C446.504 421.885 440.957 429.855 435.774 438.054C432.764 442.816 430.338 447.948 427.649 452.913C428.27 453.401 428.891 453.889 429.511 454.376C429.788 453.608 429.871 452.673 430.37 452.098C436.329 445.233 442.038 438.113 448.435 431.677C456.104 423.96 464.373 416.839 472.382 409.46C472.382 409.46 472.767 409.35 473.291 409.234C484.502 404.12 495.164 399.065 505.894 394.161C508.817 392.825 511.948 391.942 514.983 390.851C515.71 390.858 516.436 390.866 517.978 390.942C527.529 390.346 536.258 389.321 545.004 389.143C550.706 389.027 556.432 390.144 562.148 390.709C563.179 390.758 564.211 390.806 565.877 391.109C567.561 391.858 568.565 392.501 569.664 392.825C584.69 397.256 599.866 401.24 614.683 406.281C619.285 407.846 621.011 407.438 622.14 403.112C622.14 403.112 622.367 402.787 622.726 402.466C627.153 398.198 631.222 394.251 635.29 390.304C637.557 389.148 639.823 387.993 642.792 386.848C644.987 386.129 646.479 385.4 647.97 384.67C648.659 384.646 649.348 384.621 650.83 384.648C655.024 384.269 658.418 383.791 661.825 383.428C663.6 383.24 665.413 383.064 667.18 383.216C671.207 383.562 675.216 384.115 679.232 384.583C679.928 384.626 680.625 384.668 681.8 385.097C682.636 385.825 682.935 386.347 683.358 386.483C695.536 390.385 704.245 398.173 709.746 409.695C710.71 411.715 712.243 413.463 713.514 415.337C713.567 415.71 713.621 416.082 713.55 417C715.778 427.636 716.766 437.756 713.173 447.754C711.686 451.891 709.647 455.83 707.859 459.859C707.859 459.859 707.633 460.233 707.26 460.571C705.351 462.411 703.752 463.854 702.291 465.425C693.459 474.915 683.083 481.326 669.781 482.229C668.488 482.316 667.274 483.581 666.024 484.3C663.97 484.295 661.916 484.289 659.221 483.947C657.578 483.114 656.593 482.229 655.57 482.183C640.707 481.503 631.131 472.3 622.567 461.639C616.314 453.857 614.475 444.474 613.884 434.801C613.467 427.964 611.989 425.984 605.864 423.97C600.373 422.165 595.055 419.793 589.505 418.216C583.095 416.394 576.514 415.169 570.008 413.684C568.727 413.619 567.446 413.554 565.663 413.12C564.334 412.261 563.522 411.374 562.677 411.341C549.763 410.842 536.844 410.2 523.926 410.213C520.488 410.216 517.052 412.308 513.614 413.441C512.954 413.467 512.294 413.494 511.037 413.382C506.181 414.777 501.634 415.796 497.733 417.972C492.571 420.852 487.914 424.638 483.039 428.035C483.039 428.035 482.628 428.198 482.085 428.194C478.976 430.406 476.409 432.621 473.843 434.837C473.326 435.387 472.809 435.937 471.767 436.697C470.786 437.556 470.33 438.205 469.874 438.854C469.874 438.854 469.971 438.995 469.575 438.959C464.449 443.549 459.526 447.999 455.065 452.873C452.52 455.654 450.731 459.127 448.601 462.289C448.527 462.441 448.453 462.594 447.926 462.985C445.922 465.411 444.372 467.597 442.822 469.784C442.822 469.784 442.908 469.919 442.508 469.906C439.755 473.087 436.488 475.823 436.007 481.102C442.418 477.61 447.847 474.606 453.321 471.689C457.174 469.635 461.089 467.699 464.977 465.711C465.371 465.674 465.766 465.638 466.863 465.721C468.871 465.735 470.252 465.869 471.466 465.48C475.148 464.3 478.766 462.917 482.409 461.614C482.845 460.946 483.281 460.278 484.06 459.133C486.688 453.22 488.973 447.785 491.257 442.349C491.257 442.349 491.29 442.286 491.64 442.185C496.289 436.037 501.043 430.466 507.655 426.765C508.224 426.446 508.452 425.518 508.839 424.873C508.839 424.873 508.936 424.934 509.291 424.94C510.288 424.779 510.975 424.708 511.565 424.429C527.723 416.807 543.918 417.204 560.006 424.473C565.511 426.959 570.734 430.068 576.086 432.893C576.086 432.893 576.025 432.99 576.053 433.285C576.751 434.017 577.419 434.454 578.088 434.891C578.088 434.891 578.027 434.99 578.053 435.297C578.904 436.632 579.682 437.702 580.56 438.683C586.91 445.779 591.321 453.965 592.227 463.434C593.56 477.377 590.491 490.071 581.75 501.69C569.22 518.345 552.237 523.489 532.635 523.142C529.083 523.079 525.545 522.241 522 521.762C521.64 521.688 521.281 521.614 520.509 521.188C513.693 517.607 507.29 514.377 500.887 511.147C500.887 511.147 500.939 511.041 500.901 510.748C500.21 510.01 499.557 509.565 498.904 509.12C498.904 509.12 498.965 509.016 498.922 508.726C498.225 507.993 497.569 507.55 496.914 507.107C496.914 507.107 496.97 507.005 496.924 506.696C493.066 500.068 489.35 493.688 485.35 487.49C484.656 486.414 482.411 485.234 481.494 485.607C478.397 486.865 475.575 488.801 472.648 490.478C472.648 490.478 472.219 490.615 471.657 490.725C462.309 497.287 453.481 503.684 444.789 510.261C443.655 511.119 443.222 512.903 442.464 514.258C442.008 514.918 441.552 515.578 440.591 516.537C438.137 518.857 435.99 520.724 434.27 522.924C425.248 534.466 418.341 547.296 413.056 560.858C410.158 568.294 407.367 576.365 407.249 584.191C406.663 623.102 406.923 662.026 407.01 700.946C407.043 715.692 394.96 730.142 382.646 731.368C381.721 731.461 380.894 732.538 380.022 733.158C376.64 733.229 373.257 733.3 369.227 733.05C363.473 730.411 358.366 728.095 353.259 725.779C353.259 725.779 353.08 725.891 353.138 725.475C347.244 718.983 341.805 712.699 342.564 703.282C342.646 702.258 341.356 701.122 340.703 700.039C340.667 656.064 340.631 612.089 340.723 567.309C335.441 555.59 330.295 544.533 324.492 533.833C322.111 529.442 318.314 525.82 315.161 521.848C315.161 521.848 315.02 522.003 315.044 521.614C314.437 520.762 313.807 520.299 313.176 519.837C313.176 519.837 313.03 519.997 313.047 519.608C312.439 518.756 311.814 518.293 311.188 517.83C311.188 517.83 311.032 517.984 311.031 517.558C307.751 514.031 304.474 510.928 301.196 507.826C301.196 507.826 301.012 507.961 301.073 507.574C300.479 506.741 299.823 506.295 299.167 505.848C299.167 505.848 298.997 505.976 299.051 505.566C289.394 495.7 277.818 489.494 264.992 484.746C263.396 488.47 262.577 491.829 260.714 494.443C255.995 501.065 250.808 507.354 245.808 513.776C245.808 513.776 245.937 513.934 245.506 513.947C243.605 514.706 242.136 515.455 240.664 516.198C222.354 525.443 203.64 525.933 185.486 516.707C168.369 508.008 157.984 494.207 158.599 473.892C158.739 469.267 158.488 464.63 158.417 459.999C158.482 459.659 158.547 459.318 158.892 458.511C162.183 452.207 164.256 445.584 168.372 440.673C183.722 422.36 203.719 417.019 226.812 421.564C244.435 425.033 256.063 435.073 261.878 452.152C263.419 456.675 264.883 461.943 270.639 463.265C274.788 464.217 279.038 464.729 283.243 465.437C284.568 465.54 285.894 465.643 287.734 466.124C295.737 470.42 303.227 474.338 310.718 478.255C311.149 477.728 311.581 477.201 312.013 476.673C309.299 473.509 306.586 470.346 303.873 467.182C303.873 467.182 303.901 467.103 303.883 466.785C303.203 466.033 302.543 465.6 301.882 465.167C301.882 465.167 301.914 465.086 301.908 464.741C295.331 457.206 288.76 450.016 282.188 442.826C282.188 442.826 282.03 442.995 282.081 442.59C281.488 441.73 280.845 441.274 280.201 440.818C280.201 440.818 280.035 440.982 280.087 440.58C279.499 439.721 278.859 439.264 278.219 438.807C278.219 438.807 278.05 438.951 278.078 438.53C274.377 435.444 270.647 432.778 266.917 430.112C266.917 430.112 266.962 430.02 266.915 429.712C258.921 423.087 249.975 418.645 240.376 415.507C237.667 414.622 234.792 414.243 231.994 413.631C231.637 413.593 231.28 413.554 230.474 413.223C229.025 412.408 228.044 411.475 227.021 411.426C216.31 410.911 205.588 410.187 194.877 410.304C190.773 410.349 186.69 412.403 182.598 413.541C181.945 413.543 181.292 413.545 180.011 413.421C165.704 417.091 152 420.804 138.388 424.829C137.157 425.193 136.522 427.571 135.61 429.013C135.561 429.358 135.512 429.702 135.157 430.494C133.953 435.229 132.971 439.501 132.172 443.807C130.134 454.802 125.904 464.196 116.789 471.64C102.209 483.545 85.7684 484.695 68.9542 480.294C60.8153 478.163 53.6935 472.147 46.1112 467.89C46.1112 467.89 46.0003 468 46.0219 467.635C45.4019 466.808 44.7603 466.346 44.1187 465.884C44.1187 465.884 44.0003 466 44.0009 465.593C43.0942 463.815 42.1127 462.488 41.2909 461.067C31.8823 444.808 29.1774 428.106 37.9349 410.616C39.0269 408.435 39.7776 406.083 40.6865 403.811C40.6865 403.811 40.7928 403.795 41.1324 403.768C42.3886 402.559 43.3054 401.376 44.2221 400.194C44.2221 400.194 44.4149 399.828 44.7569 399.508C46.1498 398.231 47.2006 397.275 48.2515 396.318C48.2515 396.318 48.2304 396.241 48.5658 396.212C49.3683 395.59 49.8352 394.997 50.3022 394.404C50.3022 394.404 50.3259 394.329 50.6946 394.225C57.0334 391.013 63.0035 387.905 68.9736 384.798C69.6768 384.727 70.3799 384.657 71.8366 384.676C80.139 384.66 87.688 384.555 95.237 384.45C95.9361 384.512 96.6352 384.575 97.8528 384.979C104.486 388.716 110.962 391.609 116.598 395.667C120.87 398.744 124.073 403.306 127.752 407.208C127.752 407.208 127.889 407.11 127.921 407.517C129.914 407.728 131.987 407.877 133.819 407.28C146.121 403.276 158.364 399.088 170.645 395.014C175.065 393.548 179.535 392.234 183.982 390.85C184.435 390.845 184.888 390.84 185.94 391.055C197.781 391.047 209.023 390.722 220.268 390.62C230.104 390.531 239.516 393.096 248.482 396.729C257.457 400.366 266.025 405.007 274.772 409.208C274.772 409.208 274.907 409.044 274.94 409.461C277.063 411.064 279.153 412.251 281.243 413.439C281.394 413.524 281.544 413.609 281.962 414.123C288.602 420.19 294.975 425.828 301.348 431.466C301.348 431.466 301.525 431.852 301.678 432.324C302.464 433.272 303.097 433.748 303.731 434.223C303.731 434.223 303.867 434.131 303.851 434.503C304.467 435.324 305.099 435.774 305.731 436.224C305.731 436.224 305.867 436.131 305.852 436.503C306.471 437.323 307.107 437.77 307.742 438.218C307.742 438.218 307.888 438.11 307.886 438.524C311.45 443.591 315.017 448.244 318.583 452.897C319.228 452.438 319.873 451.978 320.517 451.518C316.859 445.539 313.2 439.559 309.541 433.579C309.541 433.579 309.432 433.175 309.318 432.637C301.588 421.312 293.972 410.525 286.357 399.737C286.357 399.737 286.296 399.713 286.243 399.342C282.834 394.941 279.478 390.911 276.122 386.88C276.122 386.88 276 387 276.021 386.595C265.882 374.316 255.721 362.443 245.56 350.569C245.56 350.569 245.423 350.181 245.295 349.701C244.534 348.741 243.901 348.26 243.268 347.779C243.268 347.779 243.12 347.867 243.153 347.492C242.546 346.672 241.904 346.226 241.263 345.78C241.263 345.78 241.101 345.879 241.147 345.499C240.544 344.676 239.895 344.233 239.246 343.791C239.246 343.791 239.061 343.906 239.123 343.484C235.742 339.444 232.298 335.826 228.855 332.207C228.855 332.207 228.881 332.131 228.873 331.809C228.191 331.07 227.517 330.651 226.844 330.233C226.844 330.233 226.858 330.151 226.854 329.828C226.226 329.012 225.602 328.52 224.978 328.029C224.978 328.029 224.826 327.595 224.808 327.058C220.555 321.983 216.355 317.41 212.07 312.92C208.494 309.173 204.817 305.522 201.185 301.829C201.185 301.829 201.043 301.997 201.058 301.601C200.444 300.746 199.814 300.288 199.184 299.83C199.184 299.83 199.039 299.995 199.051 299.605C198.442 298.75 197.822 298.285 197.202 297.82C197.202 297.82 197.049 297.974 197.064 297.587C196.454 296.74 195.83 296.28 195.206 295.819C195.206 295.819 195.042 295.961 195.068 295.577C194.463 294.736 193.831 294.28 193.199 293.824C193.199 293.824 193.033 293.968 193.065 293.584C192.47 292.738 191.843 292.276 191.216 291.815C191.216 291.815 191.046 291.941 191.078 291.558C190.462 290.723 189.813 290.271 189.164 289.82C189.164 289.82 188.875 289.496 188.481 289.094C185.283 288.286 182.486 287.605 179.674 287.532C173.762 287.379 167.815 287.916 161.931 287.491C153.618 286.89 146.554 282.9 139.958 278.051C139.958 278.051 140.002 278.004 139.994 277.693C139.306 276.944 138.627 276.505 137.947 276.066C137.947 276.066 138.003 276.007 137.988 275.701C137.307 274.941 136.641 274.487 135.975 274.033C135.975 274.033 135.791 273.606 135.787 273.039C134.392 269.667 133.003 266.862 131.613 264.056C131.583 263.351 131.553 262.646 131.591 261.19C131.568 255.876 131.476 251.313 131.385 246.749C131.437 245.513 131.49 244.277 131.828 242.563C132.99 240.197 133.93 238.335 134.729 236.415C138.336 227.747 144.944 221.779 152.44 216.596C152.793 216.54 153.146 216.484 154.04 216.524C159.568 216.012 164.543 215.09 169.544 214.911C172.679 214.799 175.854 215.806 179.011 216.311C179.351 216.384 179.692 216.457 180.451 216.848C185.799 220.201 190.728 223.237 195.657 226.272C195.657 226.272 195.73 226.273 195.754 226.65C205.171 237.038 204.823 249.278 203.675 261.685C203.299 265.749 201.05 270.808 202.696 273.656C206.403 280.07 212.009 285.386 216.842 291.148C216.842 291.148 216.995 291.005 216.94 291.396C217.536 292.242 218.187 292.697 218.838 293.152C218.838 293.152 218.995 293.005 218.939 293.397C219.528 294.247 220.174 294.706 220.82 295.165C220.82 295.165 220.989 295.013 220.933 295.428C221.809 296.983 222.74 298.123 223.671 299.263C223.671 299.263 223.73 299.263 223.794 299.585C224.453 300.366 225.048 300.825 225.644 301.284C225.644 301.284 225.708 301.288 225.78 301.608C226.449 302.379 227.047 302.83 227.645 303.281C227.645 303.281 227.709 303.286 227.781 303.623C228.624 304.562 229.395 305.164 230.165 305.766C230.165 305.766 230.165 305.849 230.192 306.197C235.158 312.013 240.098 317.48 245.039 322.947C247.176 325.166 249.314 327.384 251.712 330.182C260.872 340.259 269.771 349.757 278.67 359.255C278.67 359.255 278.738 359.261 278.753 359.6C279.403 360.378 280.037 360.818 280.672 361.258C280.672 361.258 280.75 361.253 280.757 361.597C281.402 362.38 282.04 362.818 282.677 363.257C282.677 363.257 282.768 363.238 282.765 363.59C283.406 364.376 284.052 364.811 284.697 365.245C284.697 365.245 284.822 365.195 284.802 365.593C286.878 368.298 288.974 370.605 291.07 372.912C291.07 372.912 291.003 372.978 291.024 373.282C291.727 374.018 292.408 374.451 293.089 374.884C293.089 374.884 293.022 374.959 293.044 375.265C293.745 376 294.425 376.429 295.105 376.859C295.105 376.859 295.049 376.937 295.071 377.271C297.891 380.873 300.688 384.141 303.486 387.41C303.486 387.41 303.603 387.802 303.726 388.282C304.483 389.243 305.117 389.724 305.751 390.205C305.751 390.205 305.909 390.117 305.897 390.524C314.33 402.772 322.767 414.62 331.232 426.447C332.793 428.628 334.47 430.727 336.093 432.864C336.171 433.016 336.25 433.169 336.333 433.884C340.749 443.134 345.16 451.822 349.572 460.51C350.21 460.26 350.848 460.009 351.486 459.759C349.908 453.848 348.33 447.937 346.752 442.027C346.765 441.313 346.778 440.598 346.791 439.14C346.172 435.501 345.781 432.533 344.879 429.728C343.711 426.096 342.137 422.594 340.738 419.035C340.722 418.623 340.707 418.211 340.786 417.113C339.511 412.962 338.141 409.495 336.77 406.029C336.744 405.62 336.718 405.21 336.728 404.199C336.029 402.588 335.295 401.578 334.56 400.568C334.521 400.218 334.481 399.868 334.571 398.997C333.289 395.521 331.877 392.567 330.466 389.612C330.441 389.252 330.417 388.892 330.518 388.024C329.789 385.227 329.084 382.869 328.057 380.662C316.96 356.813 304.11 333.964 288.66 312.645C285.723 308.593 282.148 305.004 278.867 301.202C278.801 301.038 278.734 300.874 278.658 300.153C276.6 297.258 274.552 294.921 272.504 292.584C272.504 292.584 272.36 292.217 272.203 291.723C266.488 285.059 260.93 278.888 255.372 272.716C255.372 272.716 255.305 272.702 255.264 272.373C254.61 271.6 253.997 271.155 253.384 270.711C253.384 270.711 253.314 270.69 253.269 270.361C252.608 269.593 251.991 269.155 251.375 268.716C251.375 268.716 251.308 268.696 251.266 268.367C250.611 267.596 249.997 267.154 249.384 266.712C249.384 266.712 249.315 266.689 249.273 266.36C248.617 265.591 248.003 265.151 247.39 264.711C247.39 264.711 247.321 264.682 247.277 264.351C246.612 263.588 245.992 263.154 245.372 262.721C245.372 262.721 245.308 262.694 245.277 262.36C244.618 261.593 243.99 261.16 243.361 260.726C243.361 260.726 243.299 260.703 243.257 260.332C241.418 258.398 239.62 256.836 237.822 255.275C237.822 255.275 237.823 255.177 237.822 254.849C237.155 254.106 236.489 253.69 235.823 253.275C235.823 253.275 235.824 253.177 235.816 252.841C232.01 248.901 228.212 245.299 224.415 241.696C224.415 241.696 224.34 241.665 224.29 241.336C223.629 240.571 223.02 240.135 222.41 239.699C222.41 239.699 222.337 239.668 222.29 239.338C221.634 238.572 221.024 238.135 220.415 237.698C220.415 237.698 220.341 237.662 220.283 237.319C219.562 236.568 218.899 236.159 218.236 235.751C218.236 235.751 217.893 235.467 217.526 235.111C211.822 230.121 206.487 225.488 201.151 220.855C201.151 220.855 201.016 221.003 201.032 220.615C200.406 219.769 199.763 219.312 199.12 218.856C199.12 218.856 198.801 218.618 198.495 218.247C195.711 216.112 193.233 214.349 190.756 212.586C190.606 212.5 190.456 212.413 190.057 211.897C189.156 211.053 188.503 210.639 187.851 210.226C187.851 210.226 187.853 210.144 187.818 209.81C186.299 208.562 184.814 207.648 183.33 206.733C183.33 206.733 183.245 206.749 183.23 206.394C182.536 205.626 181.857 205.214 181.179 204.801C181.179 204.801 180.882 204.484 180.525 204.114C173.699 198.861 167.214 194 160.769 189.086C157.509 186.601 154.233 186.955 150.489 188.117C143.925 190.157 137.266 192.168 130.496 193.2C121.868 194.515 114.032 190.638 106.108 187.869C106.108 187.869 105.8 187.618 105.475 187.24C104.653 186.431 104.199 185.938 103.655 185.577C93.4862 178.831 85.4225 170.625 83.8154 157.735C83.6532 156.435 82.4957 155.259 81.8 154.025C81.8024 149.984 81.8048 145.942 82.0717 141.215C82.8202 139.684 83.5897 138.887 83.7453 137.985C85.9749 125.051 93.4042 116.14 105.021 110.56C109.702 108.311 114.566 106.44 119.346 104.397C125.796 104.403 132.246 104.41 139.279 104.791C142.34 105.838 144.817 106.511 147.293 107.184C147.492 106.727 147.691 106.269 147.89 105.811C147.11 104.622 146.286 103.46 145.558 102.24C138.609 90.6006 137.016 78.3234 143.463 66.2296C152.904 48.5225 177.82 39.7077 197.451 47.7202C201.083 49.2027 204.5 51.2119 208.016 52.978C208.517 53.5488 209.018 54.1196 209.767 55.1941C212.12 58.7847 214.226 61.8715 216.331 64.9583C216.369 65.3602 216.407 65.7621 216.434 66.8147C217.007 69.4937 217.968 71.4973 218.103 73.5551C218.49 79.4408 218.541 85.3486 218.725 91.2477C218.652 91.95 218.578 92.6522 218.134 93.8345C215.439 98.4587 213.115 102.603 210.791 106.747C210.791 106.747 210.883 106.896 210.515 106.873C209.696 107.486 209.247 108.121 208.797 108.757C208.797 108.757 208.897 108.923 208.522 108.881C207.701 109.485 207.255 110.13 206.808 110.776C206.808 110.776 206.923 110.962 206.541 110.898C205.712 111.486 205.265 112.138 204.818 112.79C204.818 112.79 204.938 112.982 204.551 112.906C203.722 113.492 203.278 114.154 202.835 114.816C202.835 114.816 202.963 115.002 202.533 114.939C198.378 117.342 199.048 120.718 200.22 124.16C203.669 134.285 206.963 144.469 210.678 154.496C212.937 160.594 215.861 166.446 218.487 172.409C218.524 172.765 218.561 173.122 218.497 173.989C222.595 183.947 226.475 193.555 231.07 202.807C237.967 216.695 245.958 229.938 256.736 241.277C256.736 241.277 256.992 241.59 257.109 242.031C257.871 242.898 258.515 243.323 259.159 243.749C259.159 243.749 259.171 243.838 259.213 244.173C266.69 252.531 274.089 260.588 281.608 268.532C282.487 269.46 284.027 269.763 285.261 270.356C285.416 270.449 285.571 270.543 285.975 271.083C288.054 273.264 289.885 274.999 291.715 276.733C291.29 270.324 290.201 264.81 288.673 259.42C287.666 255.869 286.028 252.496 284.672 249.044C284.659 248.338 284.646 247.633 284.648 246.187C284.403 244.159 284.174 242.866 283.877 241.588C282.828 237.068 281.755 232.554 280.691 228.038C280.708 227.007 280.725 225.976 280.783 224.223C279.031 222.488 277.271 221.412 275.441 220.473C268.457 216.888 260.395 214.555 254.664 209.548C241.256 197.831 237.426 181.989 240.179 164.764C241.205 158.347 243.956 152.205 245.92 145.937C245.92 145.937 245.994 145.995 246.31 145.953C248.507 143.025 250.388 140.139 252.268 137.254C253.531 136.102 254.794 134.951 256.694 133.771C261.672 131.513 265.838 128.802 270.388 127.145C285.557 121.624 300.624 122.347 315.376 128.938C318.718 130.431 322.01 132.033 325.326 133.585C326.726 134.912 328.126 136.239 329.738 138.142C334.793 146.474 338.859 154.292 340.921 163.572C343.02 173.021 341.592 181.484 338.671 189.983C336.677 195.788 333.489 201.184 330.835 206.763C330.835 206.763 330.832 206.829 330.499 206.865C329.724 207.525 329.282 208.148 328.84 208.771C328.84 208.771 328.838 208.837 328.503 208.862C327.724 209.515 327.281 210.141 326.838 210.768C326.838 210.768 326.836 210.834 326.502 210.86C325.723 211.508 325.278 212.131 324.833 212.753C324.833 212.753 324.816 212.821 324.425 212.834C318.286 215.569 312.497 218.21 306.82 221.073C305.463 221.757 304.48 223.182 303.325 224.267C303.36 225.798 303.395 227.329 303.317 229.687C303.941 234.099 301.233 238.401 305.439 241.263C305.51 242.268 305.58 243.273 305.457 244.928C306.718 251.299 307.73 257.178 309.709 262.713C315.736 279.574 322.037 296.34 328.47 313.05C329.824 316.567 332.197 319.691 334.1 322.996C334.228 323.647 334.356 324.297 334.375 325.645C342.794 348.208 351.322 370.072 359.85 391.936C360.413 391.924 360.976 391.911 361.54 391.899C361.54 390.571 361.54 389.242 361.54 387.914C361.524 362.24 361.507 336.566 361.646 310.188C361.092 308.706 360.529 307.639 359.651 307.196C353.277 303.977 346.841 300.885 340.424 297.753C340.424 297.753 340.302 297.708 340.21 297.332C339.061 296.319 338.004 295.682 336.948 295.045C336.778 294.746 336.609 294.448 336.307 293.63C335.585 292.663 334.994 292.216 334.403 291.769C334.403 291.769 334.291 291.707 334.203 291.306C328.93 282.607 324.738 273.86 324.867 263.868C324.946 257.851 325.715 251.771 326.868 245.854C329.64 231.626 338.454 221.828 350.783 214.877C353.549 213.317 356.416 211.936 359.237 210.473C359.633 210.409 360.029 210.346 361.008 210.508C373.85 208.976 386.057 209.499 397.045 215.377C403.708 218.941 409.258 224.586 415.308 229.297C415.397 229.459 415.486 229.621 415.719 230.391C417.667 233.999 419.471 236.999 421.275 239.999C421.357 240.354 421.438 240.709 421.373 241.746C421.837 248.283 422.858 254.131 422.937 259.992C423.009 265.302 422.053 270.626 421.55 275.943C421.519 276.336 421.487 276.729 421.071 277.542C417.742 283.237 414.796 288.513 411.851 293.789C411.851 293.789 411.858 293.859 411.489 293.886C405.689 299.768 399.461 304.44 391.938 307.356C390.072 308.079 388.497 309.549 386.788 310.676C386.674 314.153 386.561 317.629 386.062 321.758C385.149 323.943 384.203 325.464 384.157 327.012C383.741 340.95 383.17 354.897 383.336 368.833C383.4 374.234 385.237 379.614 386.267 385.004C386.31 385.375 386.354 385.747 386.214 386.795C386.302 388.99 386.572 390.508 386.843 392.026C387.419 392.038 387.994 392.05 388.57 392.062C389.183 389.057 389.796 386.052 390.409 383.047C390.432 382.654 390.455 382.261 390.879 381.458C391.957 379.251 392.575 377.429 393.318 375.659C399.773 360.3 406.281 344.963 412.713 329.595C421.235 309.232 429.884 288.919 438.075 268.424C440.27 262.932 441.001 256.854 442.404 251.045C442.418 250.647 442.431 250.25 442.811 249.422C444.208 244.336 445.238 239.681 446.269 235.026C446.315 233.385 446.362 231.743 446.863 229.636C449.907 227.039 449.402 224.428 447.078 223.121C443.521 221.122 439.47 220.001 435.629 218.507C435.629 218.507 435.234 218.358 435.051 217.896C432.34 215.892 429.811 214.349 427.282 212.807C427.282 212.807 427.203 212.803 427.154 212.468C426.479 211.703 425.854 211.272 425.228 210.841C425.228 210.841 425.162 210.839 425.136 210.506C424.488 209.726 423.867 209.28 423.245 208.834C423.245 208.834 423.178 208.822 423.128 208.445C420.682 205.08 418.285 202.091 415.889 199.102C415.889 199.102 415.642 198.764 415.708 198.201C414.441 193.607 412.712 189.659 411.859 185.53C410.206 177.528 408.272 169.447 411.652 161.324C412.022 160.434 411.41 159.135 411.254 158.026C411.294 157.332 411.333 156.637 411.764 155.52C414.622 150.285 417.088 145.473 419.554 140.661C421.559 138.606 423.564 136.551 426.139 134.245C434.379 129.041 442.42 124.453 451.657 124.101C459.467 123.803 467.476 124.427 475.157 125.898C490.953 128.925 500.747 139.178 506.196 153.984C506.608 155.105 507.645 155.996 508.392 156.994C508.434 157.648 508.477 158.301 508.387 159.743C508.62 163.923 509.01 167.313 509.339 170.708C509.475 172.117 509.604 173.548 509.518 174.955C509.292 178.627 508.945 182.291 508.646 185.959C508.61 186.654 508.574 187.349 508.182 188.542C504.82 194.93 501.814 200.821 498.808 206.712C498.808 206.712 498.795 206.792 498.425 206.85C495.643 209.514 493.233 212.121 490.822 214.727C490.822 214.727 490.796 214.802 490.409 214.845C484.408 217.349 478.772 219.76 473.198 222.309C471.963 222.874 470.95 223.924 469.835 224.751C469.835 224.751 469.811 224.819 469.412 224.878C468.481 225.937 467.667 226.883 467.459 227.948C464.996 240.518 462.604 253.102 460.244 265.691C459.759 268.281 459.482 270.909 459.11 273.52C459.59 273.805 460.071 274.09 460.552 274.375C462.329 272.541 464.106 270.707 465.883 268.873C465.883 268.873 466.232 268.647 466.765 268.704C473.932 261.614 480.567 254.467 487.203 247.32C487.203 247.32 487.231 247.232 487.569 247.19C488.336 246.535 488.765 245.921 489.194 245.307C489.194 245.307 489.228 245.224 489.569 245.191C490.333 244.53 490.755 243.9 491.177 243.271C491.177 243.271 491.202 243.196 491.57 243.138C493.006 241.816 494.227 240.65 495.113 239.269C497.096 236.18 498.912 232.985 500.796 229.832C500.796 229.832 500.952 229.919 501.24 229.891C503.21 227.132 504.891 224.4 506.573 221.668C507.108 221.041 507.644 220.413 508.645 219.39C516.025 206.227 523.303 193.64 529.721 180.628C533.663 172.636 536.289 163.995 539.506 155.646C539.563 155.279 539.62 154.912 540.086 154.129C544.15 143.38 547.817 133.052 551.422 122.701C551.602 122.183 551.464 121.246 551.098 120.894C547.374 117.302 543.571 113.79 539.791 110.257C539.791 110.257 539.848 110.162 539.853 109.819C537.096 103.235 534.369 96.9769 531.53 90.7705C531.159 89.9598 530.209 89.4139 529.527 88.7454C529.502 83.5526 529.477 78.3598 529.833 72.6139C532.111 67.6772 534.008 63.2936 535.905 58.91C535.905 58.91 536 58.9991 536.294 58.9692C537.019 58.2565 537.451 57.5736 537.883 56.8907C537.883 56.8907 537.998 56.9972 538.284 56.9619C539.007 56.2471 539.443 55.5675 539.879 54.8879C539.879 54.8879 539.997 54.9966 540.283 54.9582C541.001 54.2389 541.433 53.558 541.865 52.8772C541.865 52.8772 541.993 52.9918 542.302 52.9525C544.206 52.1468 545.819 51.4129 547.395 50.6077C551.353 48.586 555.295 46.532 559.243 44.4909C559.644 44.4544 560.046 44.4178 561.081 44.6253C565.203 44.8336 568.697 44.9131 572.179 44.7421C587.165 44.0066 596.735 51.886 603.076 64.4642C610.057 78.3123 609.364 92.0293 601.489 105.409C600.821 106.545 600.613 107.951 599.753 110.562C605.13 108.142 609.185 106.317 613.24 104.492C615.222 104.436 617.204 104.38 619.887 104.483C622.711 104.559 624.833 104.476 626.956 104.392C628.287 104.399 629.618 104.406 631.48 104.793C638.588 108.172 645.164 111.173 651.74 114.173C651.74 114.173 651.811 114.192 651.843 114.533C652.522 115.291 653.171 115.71 653.819 116.128C653.961 116.234 654.104 116.34 654.584 116.892C656.034 118.77 657.094 120.245 658.265 121.626C669.146 134.458 670.473 148.869 663.564 163.562C657.103 177.305 646.702 187.082 630.731 189.285C629.658 189.433 628.746 190.746 627.759 191.517C622.562 191.529 617.364 191.542 611.596 191.142C606.784 189.172 602.631 187.188 598.255 186.282C596.679 185.956 594.567 188.22 592.699 189.302C592.532 189.387 592.366 189.472 591.597 189.705C589.706 190.941 588.418 192.031 587.129 193.12C587.129 193.12 587.006 193.006 586.691 193.025C583.95 194.401 581.32 195.494 579.14 197.17C574.645 200.629 570.389 204.399 566.035 208.041C566.035 208.041 565.71 208.278 565.177 208.221C562.024 210.323 559.404 212.482 556.784 214.641C556.784 214.641 556.735 214.739 556.34 214.803C554.182 216.034 552.327 217.085 550.671 218.387C544.492 223.245 538.183 227.964 532.301 233.162C527.349 237.537 522.921 242.505 518.261 247.211C518.261 247.211 518.167 247.157 517.845 247.158C517.103 247.843 516.684 248.527 516.265 249.211C516.265 249.211 516.171 249.168 515.849 249.169C515.105 249.849 514.682 250.528 514.259 251.208C514.259 251.208 514.158 251.157 513.841 251.162C513.104 251.847 512.683 252.528 512.263 253.208C512.263 253.208 512.157 253.161 511.859 253.163C511.042 253.778 510.524 254.391 509.778 255.178C509.295 255.821 509.04 256.289 508.784 256.758C508.784 256.758 508.935 256.89 508.548 256.896C507.699 257.514 507.237 258.125 506.775 258.736C506.775 258.736 506.882 258.852 506.514 258.872C505.69 259.508 505.235 260.124 504.78 260.74C504.78 260.74 504.888 260.867 504.518 260.875C503.692 261.501 503.236 262.118 502.779 262.735C502.779 262.735 502.874 262.866 502.507 262.865C501.688 263.491 501.237 264.117 500.785 264.743C500.785 264.743 500.887 264.885 500.517 264.874C499.693 265.49 499.239 266.115 498.785 266.741C498.785 266.741 498.878 266.885 498.512 266.87C497.692 267.482 497.238 268.109 496.784 268.736C496.784 268.736 496.856 268.876 496.464 268.876C493.53 271.697 490.875 274.426 488.474 277.363C485.904 280.508 483.572 283.848 481.137 287.102C481.137 287.102 481.058 287.043 480.751 287.065C480.018 287.764 479.592 288.442 479.166 289.119C479.166 289.119 479.087 289.078 478.765 289.105C477.534 290.63 476.625 292.128 475.715 293.625C475.715 293.625 475.695 293.692 475.367 293.738C474.6 294.401 474.161 295.017 473.722 295.634C473.722 295.634 473.702 295.699 473.363 295.751C472.605 296.464 472.187 297.124 471.768 297.784C471.768 297.784 471.49 298.121 471.134 298.487C465.458 306.171 460.138 313.489 454.818 320.806C454.818 320.806 454.993 320.94 454.572 320.968C451.705 324.943 449.258 328.891 446.811 332.838C446.811 332.838 446.574 333.17 446.22 333.52C441.244 341.515 436.309 348.991 432.09 356.853C428.245 364.018 425.177 371.601 421.767 379C421.65 379.629 421.532 380.259 421.086 381.348C419.007 385.945 417.256 390.081 415.506 394.217C415.42 394.616 415.334 395.014 414.912 395.886C413.349 399.198 411.797 401.942 410.952 404.889C406.766 419.491 402.698 434.127 398.756 448.796C397.909 451.948 397.754 455.286 397.28 458.538C399.302 457.806 400.434 456.712 401.102 455.384C404.15 449.328 406.728 443.01 410.108 437.151C415.553 427.71 421.496 418.556 427.228 409.281C427.228 409.281 427.171 409.169 427.552 409.132C429.929 406.042 431.924 402.99 433.92 399.938C433.92 399.938 434.004 399.981 434.309 399.93C436.5 397.362 438.385 394.847 440.269 392.331C440.269 392.331 440.234 392.247 440.591 392.246C441.389 391.607 441.83 390.969 442.272 390.33C442.272 390.33 442.242 390.253 442.617 390.217C446.704 385.498 450.415 380.816 454.127 376.134C454.127 376.134 454.003 376 454.379 376.038C455.207 375.422 455.659 374.768 456.111 374.114C456.111 374.114 456 374 456.395 374.028C469.561 360.999 482.357 347.968 495.052 334.839C495.989 333.87 496.197 332.198 496.744 330.852C496.744 330.852 497.08 330.646 497.513 330.466C498.388 329.649 498.83 329.011 499.271 328.373C499.271 328.373 499.31 328.313 499.645 328.28C500.424 327.604 500.868 326.961 501.312 326.319ZM568.668 175.119C570.668 173.653 572.521 171.903 574.697 170.776C579.844 168.11 579.57 164.089 578.283 159.4C575.151 147.988 576.888 137.159 582.803 126.991C584.267 124.475 586.058 122.149 588.275 118.889C584.009 119.901 580.702 121.412 577.455 121.292C572.043 121.093 570.29 124.039 568.875 128.396C564.226 142.71 559.332 156.945 554.59 171.229C552.741 176.799 551.045 182.419 549.279 188.016C549.676 188.31 550.074 188.603 550.471 188.896C556.319 184.408 562.167 179.92 568.668 175.119ZM174.479 152.753C173.857 157.329 172.986 161.891 172.753 166.486C172.676 168.007 173.916 169.955 175.123 171.114C179.31 175.135 183.608 179.07 188.129 182.709C192.898 186.548 197.97 190.01 202.91 193.637C200.202 185.39 196.402 178.048 193.839 170.297C189.533 157.277 186.15 143.955 182.111 130.843C179.707 123.042 174.68 119.814 165.117 119.617C172.034 129.531 174.567 140.422 174.479 152.753Z" fill="#363636"/>
<path d="M28.4532 219.425C37.1777 212.639 46.7264 209.708 57.4456 210.227C75.8184 211.117 93.0932 223.817 96.9135 243.868C98.866 254.116 97.5245 263.258 93.259 272.187C87.6076 284.018 77.8841 290.593 65.1658 293.841C43.8267 299.289 24.0475 287.647 16.5071 269.908C9.87628 254.308 11.7262 233.641 28.4532 219.425Z" fill="#373737"/>
<path d="M331.446 13.5574C338.115 20.4065 341.748 28.1171 343.178 37.3909C345.291 51.0984 341.608 62.9271 332.711 72.8522C325.455 80.9448 315.836 85.1095 304.669 85.8538C292.028 86.6963 281.064 82.987 271.845 74.6686C265.723 69.1441 261.662 61.8546 260.081 53.7796C258.141 43.8726 258.519 34.1039 263.387 24.6433C268.859 14.008 276.866 6.73738 288.184 3.21725C304.44 -1.83895 318.831 1.51847 331.446 13.5574Z" fill="#363636"/>
<path d="M486.082 56.1034C476.203 89.1028 434.239 95.8887 413.281 71.864C402.174 59.1318 400.034 43.9102 405.872 28.0969C412.454 10.2701 430.657 -1.08329 449.443 1.13509C465.977 3.08754 480.833 11.8203 485.879 31.5396C487.521 37.9592 487.242 44.8907 487.605 51.6009C487.678 52.9406 486.676 54.3386 486.082 56.1034Z" fill="#AE7160"/>
<path d="M727.27 293.188C715.482 307.022 700.722 311.601 683.696 307.704C669.559 304.468 659.548 295.453 654.267 281.938C647.636 264.965 652.189 247.278 664.213 235.566C677.639 222.488 701.391 220.413 717.498 230.679C736.552 242.824 743.078 273.089 727.27 293.188Z" fill="#909873"/>
<path d="M156.549 372.268C144.093 373.201 133.316 370.681 125.574 360.555C117.485 349.977 116.666 338.042 121.578 326.294C126.502 314.517 136.414 308.416 149.209 307.525C162.368 306.609 172.571 312.142 179.199 323.241C186.89 336.117 185.369 349.157 176.762 360.976C172.083 367.401 165.005 371.024 156.549 372.268Z" fill="#373737"/>
<path d="M348.534 95.4821C353.685 88.0263 360.882 84.2876 369.163 83.4015C387.989 81.3873 401.57 89.5579 406.135 107.679C410.859 126.431 399.531 145.395 378.681 147.963C362.045 150.011 350.174 141.642 344.068 127.687C339.077 116.283 341.522 105.698 348.534 95.4821Z" fill="#9E402F"/>
<path d="M636.034 327.117C640.183 342.514 638.785 356.156 625.523 366.463C613.298 375.963 587.832 375.054 577.71 357.111C568.112 340.099 574.806 318.616 591.504 310.471C605.963 303.418 627.517 307.931 636.034 327.117Z" fill="#9D3F2F"/>
<path d="M1.03912 332.5C6.9112 314.824 18.01 306.468 35.7315 307.634C58.1373 309.107 71.4102 332.688 63.2184 352.347C59.2736 361.814 52.5416 368.025 42.8566 371.385C26.952 376.902 5.91774 366.631 1.61526 350.33C0.172004 344.863 1.14597 338.757 1.03912 332.5Z" fill="#373737"/>
<path d="M731.195 320.417C741.577 323.538 749.813 329.076 753.648 338.95C762.753 362.39 747.421 384.186 724.893 384.904C707.559 385.456 694.489 374.714 691.422 358.501C687.903 339.892 700.511 321.745 720.829 320.071C724.117 319.8 727.462 320.213 731.195 320.417Z" fill="#646384"/>
<path d="M380.281 733.405C380.894 732.538 381.721 731.461 382.646 731.369C394.96 730.143 407.043 715.692 407.01 700.946C406.923 662.027 406.663 623.102 407.249 584.191C407.367 576.365 410.158 568.294 413.056 560.858C418.341 547.297 425.248 534.466 434.27 522.924C435.99 520.724 438.137 518.857 440.425 516.791C439.296 519.045 438.035 521.513 436.328 523.62C427.656 534.319 420.817 546.061 415.924 558.925C413.822 564.45 411.525 569.943 410.027 575.637C409.176 578.87 409.711 582.48 409.709 585.92C409.696 621.582 409.873 657.245 409.603 692.904C409.515 704.581 408.184 716.287 398.733 724.875C393.597 729.542 387.915 733.451 380.281 733.405Z" fill="#B1B1B1"/>
<path d="M283.153 465.086C279.038 464.729 274.788 464.218 270.639 463.265C264.883 461.944 263.419 456.675 261.878 452.152C256.063 435.074 244.435 425.033 226.812 421.564C203.719 417.019 183.722 422.361 168.372 440.673C164.256 445.584 162.183 452.207 158.904 458.251C159.448 455.229 159.72 451.732 161.165 448.817C168.375 434.268 179.911 425.319 195.684 420.693C206.457 417.534 217.076 417.07 227.544 419.413C244.456 423.197 257.162 432.731 262.959 449.926C264.058 453.189 264.969 457.287 267.39 459.138C270.42 461.454 274.928 461.82 278.781 463.081C280.234 463.556 281.638 464.179 283.153 465.086Z" fill="#B1B1B1"/>
<path d="M442.087 251.238C441.001 256.854 440.27 262.932 438.075 268.424C429.884 288.92 421.235 309.232 412.713 329.595C406.281 344.963 399.773 360.3 393.318 375.659C392.575 377.429 391.957 379.251 390.959 381.174C392.03 376.648 392.998 371.816 394.891 367.378C401.885 350.98 409.526 334.852 416.281 318.36C424.399 298.543 431.878 278.463 439.586 258.479C440.469 256.19 441.049 253.783 442.087 251.238Z" fill="#8C8C8C"/>
<path d="M522.178 522.113C525.545 522.241 529.083 523.079 532.635 523.141C552.237 523.489 569.22 518.345 581.75 501.69C590.491 490.071 593.56 477.377 592.226 463.434C591.321 453.965 586.91 445.779 580.56 438.683C579.682 437.702 578.904 436.632 578.095 435.256C585.276 439.239 589.194 446.232 591.662 453.662C596.519 468.286 594.943 482.774 587.677 496.325C583.676 503.788 578.229 510.223 570.887 514.901C560.219 521.698 548.603 525.505 536.018 525.471C531.462 525.459 526.911 523.522 522.178 522.113Z" fill="#A5A5A5"/>
<path d="M158.043 460.165C158.488 464.63 158.739 469.267 158.599 473.892C157.984 494.207 168.37 508.009 185.486 516.707C203.64 525.933 222.354 525.443 240.664 516.198C242.136 515.455 243.605 514.706 245.426 513.883C241.82 516.437 238.182 520.036 233.83 521.473C227.144 523.68 219.882 525.838 213.016 525.436C200.95 524.728 188.969 522.4 178.635 514.976C168.496 507.692 160.742 498.592 158.146 486.339C156.497 478.553 156.791 470.349 156.334 462.325C156.297 461.688 157.202 460.997 158.043 460.165Z" fill="#B1B1B1"/>
<path d="M46.0867 468.241C53.6935 472.147 60.8153 478.163 68.9542 480.294C85.7684 484.695 102.209 483.545 116.789 471.64C125.904 464.196 130.134 454.802 132.172 443.807C132.971 439.501 133.953 435.229 135.162 430.756C135.678 443.17 132.628 454.879 125.463 465.31C118.556 475.367 108.526 480.43 96.8633 483.21C77.854 487.742 61.5001 482.896 47.0822 470.248C46.6163 469.839 46.3966 469.149 46.0867 468.241Z" fill="#B1B1B1"/>
<path d="M570.151 414.042C576.514 415.169 583.095 416.394 589.505 418.216C595.055 419.793 600.373 422.165 605.864 423.97C611.989 425.984 613.467 427.964 613.884 434.801C614.475 444.474 616.314 453.857 622.567 461.639C631.131 472.3 640.707 481.503 655.57 482.183C656.593 482.229 657.578 483.114 658.781 483.943C648.947 485.48 640.506 481.191 633.261 475.283C625.371 468.85 617.845 461.58 615.085 451.146C613.537 445.294 612.385 439.314 611.459 433.33C610.953 430.065 610.768 427.513 606.696 426.367C595.147 423.116 583.746 419.339 572.301 415.721C571.566 415.488 570.96 414.849 570.151 414.042Z" fill="#A5A5A5"/>
<path d="M208.014 52.6278C204.5 51.212 201.083 49.2028 197.451 47.7203C177.82 39.7078 152.904 48.5226 143.463 66.2297C137.016 78.3235 138.609 90.6006 145.558 102.24C146.286 103.46 147.11 104.622 147.89 105.811C147.691 106.269 147.492 106.727 147.293 107.185C144.817 106.511 142.34 105.838 139.716 104.837C140.658 104.205 141.746 103.899 142.987 103.551C141.592 99.2128 140.367 95.0255 138.902 90.9241C134.451 78.4603 138.604 67.6644 146.603 58.6064C157.908 45.8045 172.958 41.3501 189.67 43.4988C196.483 44.3748 203.016 47.0212 208.014 52.6278Z" fill="#B1B1B1"/>
<path d="M426.88 409.235C421.496 418.556 415.553 427.71 410.108 437.151C406.728 443.01 404.15 449.328 401.102 455.384C400.434 456.712 399.302 457.806 397.28 458.538C397.754 455.286 397.909 451.948 398.756 448.796C402.698 434.127 406.766 419.491 410.952 404.889C411.797 401.942 413.349 399.198 414.898 396.192C415.364 396.948 415.863 397.994 415.595 398.778C412.534 407.727 409.089 416.555 406.303 425.587C404.402 431.75 403.378 438.183 403.061 444.979C405.499 440.887 407.772 436.685 410.408 432.725C415.678 424.809 421.146 417.027 426.88 409.235ZM401.548 447.627C401.449 448.176 401.349 448.726 401.249 449.275C401.473 448.857 401.697 448.44 401.548 447.627Z" fill="#B1B1B1"/>
<path d="M612.853 104.346C609.185 106.317 605.13 108.142 599.753 110.562C600.613 107.951 600.821 106.545 601.489 105.409C609.364 92.0292 610.057 78.3122 603.076 64.4642C596.735 51.8859 587.165 44.0065 572.179 44.7421C568.697 44.913 565.203 44.8336 561.384 44.6351C561.949 43.7266 562.754 42.6651 563.751 42.4363C577.242 39.3393 594.085 46.6696 602.03 58.3499C607.27 66.0546 609.594 74.8852 609.996 83.5581C610.306 90.2591 606.654 97.1437 604.507 104.48C604.644 105.167 605.038 105.32 605.431 105.473C607.776 105.048 610.12 104.624 612.853 104.346Z" fill="#8C8C8C"/>
<path d="M472.031 409.339C464.373 416.839 456.104 423.96 448.435 431.677C442.038 438.113 436.329 445.233 430.37 452.098C429.871 452.673 429.788 453.608 429.511 454.376C428.891 453.889 428.27 453.401 427.649 452.913C430.338 447.948 432.764 442.816 435.774 438.054C440.957 429.855 446.504 421.886 452.21 413.705C451.524 415.333 450.565 417.1 449.522 418.815C446.026 424.564 442.499 430.294 439.632 436.813C441.013 435.699 442.45 434.647 443.766 433.46C452.347 425.726 460.891 417.952 469.485 410.232C470.058 409.718 470.94 409.548 472.031 409.339ZM437.425 439.454C437.763 439.53 438.1 439.606 438.438 439.682C438.215 439.467 437.993 439.251 437.425 439.454Z" fill="#B1B1B1"/>
<path d="M245.567 145.966C243.956 152.205 241.205 158.347 240.179 164.764C237.426 181.989 241.256 197.831 254.664 209.548C260.395 214.555 268.457 216.888 275.441 220.473C277.271 221.412 279.031 222.488 280.715 223.842C271.799 221.911 263.524 218.625 256.024 213.23C246.564 206.424 241.895 196.742 239.003 186.077C237.643 181.062 236.745 175.55 237.339 170.462C238.335 161.921 239.424 153.118 245.567 145.966Z" fill="#B1B1B1"/>
<path d="M274.798 408.855C266.025 405.007 257.457 400.366 248.482 396.73C239.516 393.096 230.104 390.531 220.268 390.62C209.023 390.722 197.781 391.047 186.278 391.024C190.266 389.901 194.483 388.761 198.774 388.24C202.214 387.822 205.75 388.274 209.236 388.135C228.867 387.355 247.049 392.366 264.095 401.844C267.77 403.887 271.253 406.273 274.798 408.855Z" fill="#B1B1B1"/>
<path d="M628.183 191.644C628.746 190.746 629.658 189.433 630.731 189.285C646.702 187.082 657.103 177.305 663.564 163.562C670.473 148.869 669.146 134.458 658.265 121.626C657.094 120.245 656.034 118.77 654.801 117.047C657.738 119.85 661.568 122.484 663.729 126.112C677.61 149.415 664.621 177.072 642.585 187.577C638.246 189.646 633.283 190.407 628.183 191.644Z" fill="#8C8C8C"/>
<path d="M358.867 210.309C356.416 211.936 353.549 213.317 350.783 214.877C338.454 221.828 329.64 231.626 326.868 245.854C325.715 251.771 324.946 257.851 324.867 263.868C324.738 273.86 328.93 282.607 334.181 291.246C332.169 289.007 329.273 286.73 328.182 283.785C325.726 277.159 322.86 270.265 322.524 263.365C321.903 250.625 325.188 238.264 332.83 227.857C339.197 219.185 347.652 212.729 358.867 210.309Z" fill="#8C8C8C"/>
<path d="M278.886 301.55C282.148 305.004 285.723 308.593 288.66 312.645C304.11 333.964 316.96 356.813 328.057 380.662C329.084 382.869 329.789 385.227 330.451 387.761C327.926 383.722 325.57 379.45 323.265 375.15C316.553 362.629 310.334 349.814 303.025 337.653C296.398 326.627 288.588 316.312 281.312 305.676C280.47 304.444 279.705 303.159 278.886 301.55Z" fill="#B1B1B1"/>
<path d="M508.57 156.71C507.645 155.996 506.608 155.105 506.196 153.984C500.747 139.178 490.953 128.925 475.157 125.898C467.476 124.427 459.467 123.803 451.657 124.101C442.42 124.454 434.379 129.041 426.347 133.991C431.35 127.261 438.977 124.237 446.932 123.2C460.93 121.375 475.021 120.765 487.858 128.764C498.402 135.334 505.569 144.347 508.57 156.71Z" fill="#8C8C8C"/>
<path d="M535.936 319.171C536.096 318.124 536.335 316.799 537.084 315.899C544.061 307.526 551.699 299.631 557.974 290.768C562.46 284.431 567.669 286.49 572.911 287.374C585.928 289.568 597.893 288.045 608.41 278.803C606.561 281.062 604.756 284.057 602.106 285.501C591.016 291.547 579.12 290.833 567.269 288.373C564.352 287.768 562.735 288.387 560.879 290.583C552.775 300.174 544.478 309.603 535.936 319.171Z" fill="#B1B1B1"/>
<path d="M334.306 322.771C332.197 319.691 329.824 316.567 328.47 313.05C322.037 296.34 315.736 279.574 309.709 262.713C307.73 257.178 306.718 251.299 305.473 245.307C306.93 247.957 308.324 250.822 309.399 253.803C316.125 272.463 322.754 291.157 329.48 309.817C331.027 314.107 332.829 318.306 334.306 322.771Z" fill="#8C8C8C"/>
<path d="M106.106 188.231C114.032 190.638 121.868 194.515 130.496 193.2C137.266 192.168 143.925 190.157 150.49 188.117C154.233 186.955 157.509 186.602 160.769 189.086C167.214 194 173.699 198.862 180.33 204.02C177.896 202.837 175.178 201.558 172.732 199.883C168.114 196.721 163.786 193.114 159.049 190.156C157.467 189.168 154.858 189.014 152.97 189.486C147.872 190.759 142.8 192.297 137.919 194.236C130.237 197.288 122.932 195.553 115.684 193.035C112.375 191.886 109.291 190.094 106.106 188.231Z" fill="#B1B1B1"/>
<path d="M216.884 290.791C212.009 285.386 206.403 280.07 202.696 273.656C201.05 270.808 203.299 265.75 203.675 261.685C204.823 249.279 205.171 237.039 195.748 226.687C201.934 227.98 203.077 233.866 204.479 238.514C206.241 244.354 206.349 250.762 206.624 256.948C206.743 259.607 205.486 262.326 204.856 265.017C202.915 273.319 208.161 278.678 212.709 284.359C214.246 286.279 215.527 288.403 216.884 290.791Z" fill="#B1B1B1"/>
<path d="M256.794 240.912C245.958 229.938 237.967 216.695 231.07 202.807C226.475 193.555 222.595 183.947 218.577 174.246C220.761 177.694 222.792 181.379 224.762 185.096C231.233 197.309 237.443 209.668 244.234 221.7C247.94 228.265 252.614 234.283 256.794 240.912Z" fill="#B1B1B1"/>
<path d="M361.205 387.842C361.54 389.242 361.54 390.571 361.54 391.899C360.976 391.911 360.413 391.924 359.85 391.936C351.322 370.072 342.794 348.208 334.407 325.977C336.728 330.251 339.087 334.818 341.056 339.547C347.735 355.591 354.277 371.692 361.205 387.842Z" fill="#8C8C8C"/>
<path d="M386.48 384.668C385.237 379.614 383.4 374.234 383.336 368.833C383.17 354.897 383.741 340.95 384.157 327.012C384.203 325.464 385.149 323.943 386.017 322.202C386.413 330.916 386.709 339.846 386.45 348.759C386.251 355.607 384.952 362.431 384.9 369.272C384.861 374.287 386.05 379.312 386.48 384.668Z" fill="#8C8C8C"/>
<path d="M331.178 206.78C333.489 201.184 336.677 195.788 338.671 189.983C341.592 181.484 343.02 173.021 340.921 163.572C338.859 154.292 334.793 146.474 329.979 138.354C333.473 143.249 338.034 148.095 340.201 153.844C347.255 172.56 344.129 190.187 332.366 206.306C332.19 206.547 331.807 206.636 331.178 206.78Z" fill="#8C8C8C"/>
<path d="M576.05 432.552C570.734 430.068 565.511 426.96 560.006 424.473C543.918 417.204 527.723 416.807 511.565 424.43C510.975 424.708 510.288 424.779 509.26 424.891C511.746 423.124 514.419 420.795 517.52 419.799C536.798 413.61 560.093 418.125 576.05 432.552Z" fill="#A5A5A5"/>
<path d="M325.184 133.286C322.01 132.033 318.718 130.431 315.376 128.938C300.624 122.347 285.557 121.624 270.388 127.146C265.838 128.802 261.672 131.514 256.977 133.62C262.011 126.563 270.119 123.855 277.908 122.954C288.633 121.713 299.872 120.511 310.347 124.92C315.469 127.076 320.157 130.265 325.184 133.286Z" fill="#8C8C8C"/>
<path d="M539.203 155.794C536.289 163.995 533.663 172.636 529.721 180.628C523.303 193.64 516.025 206.227 508.802 219.122C509.984 215.878 511.082 212.26 513.029 209.176C523.119 193.187 530.4 175.891 537.242 158.369C537.589 157.48 538.338 156.748 539.203 155.794Z" fill="#8C8C8C"/>
<path d="M246.172 513.816C250.808 507.354 255.995 501.065 260.714 494.443C262.577 491.829 263.396 488.471 264.992 484.747C277.818 489.495 289.394 495.7 299.132 505.496C294.67 502.881 290.288 499.745 285.667 497.016C279.384 493.304 272.917 489.904 266.396 486.296C261.318 497.425 257.701 508.41 246.172 513.816Z" fill="#B1B1B1"/>
<path d="M40.3532 403.871C39.7776 406.083 39.0269 408.435 37.9349 410.616C29.1774 428.106 31.8823 444.808 41.2909 461.067C42.1127 462.488 43.0943 463.815 44.0589 465.534C42.5289 464.352 40.571 463.059 39.4131 461.254C30.2486 446.964 28.8505 431.48 33.4878 415.485C34.6864 411.35 37.7909 407.767 40.3532 403.871Z" fill="#B1B1B1"/>
<path d="M496.414 330.892C496.197 332.198 495.989 333.87 495.052 334.839C482.357 347.968 469.561 361 456.451 374.084C456.384 373.367 456.455 372.43 456.956 371.903C469.971 358.219 483.031 344.579 496.414 330.892Z" fill="#B1B1B1"/>
<path d="M621.76 403.127C621.011 407.438 619.285 407.846 614.683 406.281C599.866 401.24 584.69 397.256 569.664 392.825C568.565 392.501 567.561 391.858 566.265 391.084C569.458 391.218 573.052 391.135 576.314 392.133C589.334 396.118 602.216 400.559 615.25 404.496C616.998 405.024 619.323 403.641 621.76 403.127Z" fill="#B1B1B1"/>
<path d="M183.698 390.599C179.535 392.234 175.065 393.548 170.645 395.014C158.364 399.088 146.121 403.275 133.819 407.28C131.987 407.876 129.914 407.728 127.872 407.586C132.694 405.517 137.565 403.691 142.504 402.076C152.793 398.712 163.089 395.363 173.446 392.22C176.662 391.244 180.086 390.952 183.698 390.599Z" fill="#B1B1B1"/>
<path d="M218.658 172.022C215.861 166.446 212.937 160.594 210.678 154.496C206.963 144.469 203.669 134.285 200.22 124.16C199.048 120.718 198.378 117.342 202.461 114.852C198.801 121.857 203.649 127.796 205.611 133.833C209.542 145.926 214.361 157.73 218.773 169.668C218.989 170.251 218.82 170.977 218.658 172.022Z" fill="#B1B1B1"/>
<path d="M465.493 268.899C464.106 270.707 462.329 272.541 460.552 274.376C460.071 274.09 459.59 273.805 459.11 273.52C459.482 270.91 459.759 268.281 460.244 265.691C462.604 253.102 464.996 240.518 467.459 227.948C467.667 226.883 468.481 225.937 469.376 224.875C467.834 235.726 465.962 246.643 464.01 257.545C463.298 261.52 462.393 265.46 461.4 270.269C463.199 269.616 464.151 269.27 465.493 268.899Z" fill="#8C8C8C"/>
<path d="M415.459 228.98C409.258 224.586 403.708 218.941 397.045 215.377C386.057 209.499 373.85 208.976 361.309 210.5C367.028 205.934 373.929 207.817 380.181 208.459C389.246 209.391 398.062 212.48 405.386 218.265C409.17 221.255 412.225 225.168 415.459 228.98Z" fill="#8C8C8C"/>
<path d="M118.927 104.246C114.566 106.44 109.702 108.311 105.021 110.56C93.4042 116.14 85.9749 125.051 83.7453 137.985C83.5898 138.887 82.8202 139.684 82.0375 140.751C80.4933 134.019 84.1666 128.453 87.6354 123.28C94.939 112.389 105.344 105.868 118.927 104.246Z" fill="#B1B1B1"/>
<path d="M135.935 428.833C136.522 427.571 137.157 425.193 138.388 424.829C152 420.803 165.704 417.091 179.692 413.489C178.667 414.432 177.417 415.458 175.988 415.884C163.524 419.602 151.023 423.192 138.556 426.9C137.693 427.156 137.02 428.054 135.935 428.833Z" fill="#B1B1B1"/>
<path d="M139.955 278.397C146.554 282.9 153.619 286.89 161.931 287.491C167.815 287.916 173.762 287.379 179.674 287.532C182.486 287.605 185.283 288.285 188.29 288.992C177.074 289.118 165.532 291.733 154.278 287.89C148.779 286.013 143.29 284.043 139.955 278.397Z" fill="#B1B1B1"/>
<path d="M666.335 484.525C667.274 483.581 668.488 482.316 669.781 482.229C683.083 481.326 693.459 474.915 702.291 465.425C703.752 463.854 705.351 462.412 707.181 460.774C707.381 461.411 707.573 462.429 707.152 462.919C696.451 475.368 683.712 484.088 666.335 484.525Z" fill="#A5A5A5"/>
<path d="M336.057 432.505C334.47 430.727 332.793 428.628 331.232 426.447C322.767 414.62 314.33 402.772 305.834 390.589C308.253 392.525 311.203 394.461 313.105 397.14C320.143 407.053 326.861 417.193 333.628 427.296C334.623 428.781 335.234 430.523 336.057 432.505Z" fill="#B1B1B1"/>
<path d="M514.021 413.594C517.052 412.308 520.488 410.216 523.926 410.213C536.844 410.2 549.763 410.842 562.677 411.341C563.522 411.373 564.334 412.261 565.28 413.101C554.328 412.953 543.261 412.169 532.187 412.072C526.272 412.019 520.347 413.15 514.021 413.594Z" fill="#A5A5A5"/>
<path d="M422.121 378.935C425.177 371.601 428.245 364.018 432.09 356.853C436.309 348.991 441.244 341.515 446.157 333.714C446.3 334.625 446.441 335.849 445.962 336.737C438.691 350.209 431.344 363.639 423.987 377.064C423.617 377.739 422.986 378.271 422.121 378.935Z" fill="#B1B1B1"/>
<path d="M539.834 110.594C543.571 113.79 547.374 117.302 551.098 120.894C551.464 121.246 551.602 122.183 551.422 122.701C547.817 133.051 544.15 143.38 540.155 153.859C540.411 151.212 540.79 148.352 541.645 145.641C543.816 138.761 546.403 132.005 548.358 125.068C548.855 123.302 548.145 120.682 547.056 119.093C545.024 116.126 542.308 113.627 539.834 110.594Z" fill="#8C8C8C"/>
<path d="M518.601 247.158C522.921 242.505 527.349 237.537 532.301 233.162C538.183 227.964 544.492 223.245 550.671 218.387C552.327 217.085 554.182 216.034 556.287 214.817C552.779 218.2 548.992 221.709 545.066 225.056C536.394 232.449 527.653 239.76 518.601 247.158Z" fill="#8C8C8C"/>
<path d="M708.208 459.846C709.647 455.83 711.686 451.891 713.173 447.754C716.766 437.756 715.778 427.636 713.619 417.273C714.79 419.295 716.151 421.503 716.681 423.895C719.612 437.108 716.821 449.11 708.208 459.846Z" fill="#A5A5A5"/>
<path d="M562.039 390.354C556.433 390.144 550.706 389.027 545.004 389.143C536.258 389.321 527.529 390.346 518.338 390.898C518.964 389.924 520.034 388.333 521.126 388.318C533.787 388.141 546.452 388.164 559.115 388.277C560.058 388.286 560.991 389.4 562.039 390.354Z" fill="#B1B1B1"/>
<path d="M315.117 522.217C318.314 525.82 322.111 529.442 324.492 533.833C330.295 544.533 335.441 555.59 340.677 566.857C338.727 563.798 337.109 560.292 335.145 556.992C328.762 546.266 322.243 535.62 315.814 524.921C315.405 524.24 315.313 523.368 315.117 522.217Z" fill="#B1B1B1"/>
<path d="M183.047 413.678C186.69 412.403 190.773 410.349 194.877 410.304C205.588 410.187 216.31 410.911 227.021 411.426C228.044 411.475 229.025 412.408 230.205 413.245C224.541 413.044 218.689 412.02 212.858 412.129C203.064 412.311 193.282 413.214 183.047 413.678Z" fill="#B1B1B1"/>
<path d="M245.414 350.909C255.721 362.443 265.882 374.316 276.081 386.534C275.084 386.2 273.823 385.716 273.045 384.814C263.946 374.271 254.912 363.672 245.896 353.057C245.511 352.603 245.469 351.858 245.414 350.909Z" fill="#B1B1B1"/>
<path d="M713.674 414.974C712.243 413.463 710.71 411.715 709.746 409.695C704.245 398.173 695.536 390.385 683.358 386.483C682.935 386.347 682.636 385.825 682.147 385.14C685.886 386.102 690.263 386.655 693.533 388.855C702.96 395.197 710.378 403.421 713.674 414.974Z" fill="#A5A5A5"/>
<path d="M514.711 390.6C511.948 391.942 508.817 392.825 505.894 394.161C495.164 399.065 484.502 404.12 473.457 409.122C475.533 407.072 477.667 404.368 480.454 403.083C490.176 398.601 500.102 394.556 510.014 390.502C511.296 389.978 512.955 390.377 514.711 390.6Z" fill="#B1B1B1"/>
<path d="M346.495 442.263C348.33 447.937 349.908 453.848 351.486 459.759C350.848 460.009 350.21 460.26 349.572 460.51C345.16 451.822 340.749 443.134 336.469 434.102C339.461 438.013 342.321 442.269 345.638 447.204C345.9 445.152 346.069 443.825 346.495 442.263Z" fill="#B1B1B1"/>
<path d="M410.917 158.203C411.41 159.135 412.022 160.434 411.652 161.324C408.272 169.447 410.206 177.528 411.859 185.53C412.712 189.659 414.441 193.607 415.625 198.008C409.986 192.029 408.767 184.116 408.482 176.301C408.265 170.36 409.815 164.355 410.917 158.203Z" fill="#8C8C8C"/>
<path d="M81.5555 154.304C82.4957 155.259 83.6532 156.435 83.8154 157.735C85.4225 170.625 93.4862 178.831 103.655 185.577C104.199 185.938 104.653 186.431 105.289 187.17C103.794 186.946 101.864 186.803 100.575 185.82C90.1851 177.892 81.9621 168.549 81.5555 154.304Z" fill="#B1B1B1"/>
<path d="M464.717 465.491C461.089 467.699 457.174 469.635 453.321 471.689C447.847 474.606 442.418 477.61 436.007 481.102C436.488 475.823 439.755 473.087 442.445 469.856C442.553 471.395 442.323 472.972 441.991 475.246C448.403 472.123 454.313 469.19 460.282 466.382C461.564 465.779 463.06 465.629 464.717 465.491Z" fill="#A5A5A5"/>
<path d="M232.138 413.979C234.792 414.243 237.667 414.622 240.376 415.507C249.975 418.645 258.921 423.087 266.877 429.746C263.398 428.336 259.968 426.454 256.409 424.859C248.401 421.272 240.328 417.828 232.138 413.979Z" fill="#B1B1B1"/>
<path d="M442.795 514.201C443.222 512.903 443.655 511.119 444.789 510.261C453.481 503.684 462.309 497.287 471.456 490.826C468.893 493.254 465.998 495.725 463.04 498.119C456.418 503.481 449.765 508.805 442.795 514.201Z" fill="#A5A5A5"/>
<path d="M278.75 358.9C269.771 349.757 260.872 340.259 251.933 330.424C254.054 331.758 256.476 333.182 258.326 335.145C264.901 342.123 271.292 349.274 277.713 356.395C278.237 356.975 278.465 357.822 278.75 358.9Z" fill="#B1B1B1"/>
<path d="M286.259 400.104C293.972 410.525 301.588 421.312 309.205 432.461C308.136 431.945 306.812 431.249 306.034 430.161C299.64 421.225 293.33 412.228 287.056 403.207C286.531 402.453 286.449 401.39 286.259 400.104Z" fill="#B1B1B1"/>
<path d="M284.441 249.308C286.028 252.496 287.666 255.869 288.673 259.421C290.201 264.81 291.29 270.324 291.715 276.733C289.885 274.999 288.054 273.264 286.224 271.191C286.839 270.99 287.453 271.127 288.529 271.443C289.22 271.566 289.45 271.511 289.679 271.456C289.531 271.231 289.383 271.006 289.235 270.781C287.56 263.711 285.885 256.641 284.441 249.308Z" fill="#B1B1B1"/>
<path d="M285.191 270.038C284.027 269.763 282.487 269.46 281.608 268.532C274.089 260.588 266.69 252.531 259.258 244.167C262.015 246.583 264.77 249.338 267.523 252.094C273.39 257.969 279.255 263.845 285.191 270.038Z" fill="#B1B1B1"/>
<path d="M127.816 406.839C124.073 403.306 120.87 398.744 116.598 395.667C110.962 391.609 104.486 388.716 98.205 384.994C102.919 386.499 108.143 387.735 112.598 390.304C119.163 394.091 124.773 399.208 127.816 406.839Z" fill="#B1B1B1"/>
<path d="M303.924 467.544C306.586 470.346 309.299 473.51 312.013 476.673C311.581 477.201 311.149 477.728 310.718 478.255C303.227 474.338 295.737 470.42 288.132 466.171C293.134 467.95 298.251 470.063 303.371 472.167C303.791 472.339 304.237 472.447 305.504 472.849C304.879 470.83 304.427 469.369 303.924 467.544Z" fill="#B1B1B1"/>
<path d="M309.383 433.93C313.2 439.559 316.859 445.539 320.517 451.518C319.873 451.978 319.228 452.438 318.583 452.897C315.017 448.244 311.45 443.591 307.832 438.597C308.774 438.538 309.766 438.819 310.954 439.155C310.352 437.458 309.788 435.87 309.383 433.93Z" fill="#B1B1B1"/>
<path d="M201.157 302.179C204.817 305.522 208.494 309.173 212.07 312.92C216.355 317.41 220.555 321.983 224.697 326.857C220.886 323.822 216.937 320.669 213.51 317.025C209.162 312.401 205.237 307.379 201.157 302.179Z" fill="#B1B1B1"/>
<path d="M473.016 490.621C475.575 488.801 478.397 486.865 481.494 485.607C482.411 485.234 484.656 486.414 485.35 487.49C489.35 493.688 493.066 500.068 496.885 506.739C494.479 504.546 491.791 502.202 489.734 499.395C487.839 496.81 486.506 493.781 485.14 490.848C483.707 487.773 482.31 485.687 478.679 488.58C477.244 489.723 475.167 490.06 473.016 490.621Z" fill="#A5A5A5"/>
<path d="M152.087 216.423C144.945 221.779 138.336 227.747 134.729 236.415C133.93 238.335 132.99 240.197 131.814 242.252C132.915 238.341 133.674 233.873 135.86 230.271C139.615 224.085 144.512 218.73 152.087 216.423Z" fill="#B1B1B1"/>
<path d="M421.894 275.769C422.053 270.626 423.009 265.302 422.937 259.993C422.858 254.131 421.837 248.283 421.402 242.018C422.539 244.143 424.279 246.666 424.321 249.216C424.45 257.164 423.976 265.125 423.611 273.075C423.572 273.934 422.716 274.756 421.894 275.769Z" fill="#8C8C8C"/>
<path d="M679.082 384.25C675.216 384.115 671.207 383.562 667.18 383.216C665.413 383.064 663.6 383.24 661.825 383.428C658.418 383.791 655.024 384.269 651.17 384.593C651.143 383.812 651.571 382.549 651.997 382.55C660.631 382.562 669.265 382.706 677.898 382.891C678.249 382.898 678.587 383.56 679.082 384.25Z" fill="#A5A5A5"/>
<path d="M509.012 185.799C508.945 182.291 509.292 178.627 509.518 174.955C509.604 173.548 509.475 172.117 509.339 170.708C509.01 167.313 508.62 163.923 508.389 160.071C509.232 160.255 510.55 160.894 510.556 161.544C510.617 169.221 510.496 176.9 510.357 184.577C510.35 184.937 509.719 185.285 509.012 185.799Z" fill="#8C8C8C"/>
<path d="M340.47 700.356C341.356 701.122 342.646 702.258 342.564 703.282C341.805 712.699 347.244 718.983 353.212 725.399C347.432 723.569 344.358 718.699 342.396 713.429C340.919 709.459 340.903 704.945 340.47 700.356Z" fill="#B1B1B1"/>
<path d="M565.742 216.572C562.922 218.957 559.352 220.635 556.933 223.341C553.002 227.738 549.824 232.808 546.037 237.785C545.659 236.894 545.132 235.59 545.551 234.767C549.626 226.761 555.681 220.61 563.565 216.301C564.06 216.03 564.854 216.306 565.742 216.572Z" fill="#B1B1B1"/>
<path d="M483.405 428.048C487.914 424.638 492.571 420.852 497.733 417.972C501.634 415.796 506.181 414.777 510.712 413.443C508.734 414.798 506.47 415.925 504.239 417.114C497.41 420.75 490.593 424.411 483.405 428.048Z" fill="#A5A5A5"/>
<path d="M448.908 462.184C450.731 459.127 452.52 455.654 455.065 452.872C459.526 447.999 464.449 443.549 469.517 438.896C469.346 439.834 469.015 440.965 468.298 441.737C461.976 448.554 455.585 455.307 448.908 462.184Z" fill="#A5A5A5"/>
<path d="M486.864 247.281C480.567 254.467 473.932 261.614 466.957 268.626C473.253 261.408 479.889 254.325 486.864 247.281Z" fill="#8C8C8C"/>
<path d="M387.172 310.721C388.497 309.549 390.072 308.079 391.938 307.356C399.461 304.44 405.689 299.768 411.454 293.879C409.075 296.971 406.86 300.857 403.528 303.039C398.622 306.252 392.919 308.25 387.172 310.721Z" fill="#8C8C8C"/>
<path d="M485.432 374.068C487.967 370.391 490.714 366.6 493.758 363.064C497.06 359.229 500.638 355.632 504.419 351.858C504.418 353.011 504.471 354.589 503.709 355.405C497.82 361.708 491.774 367.864 485.432 374.068Z" fill="#B1B1B1"/>
<path d="M282.148 443.176C288.76 450.016 295.331 457.206 301.868 464.757C295.258 457.92 288.682 450.723 282.148 443.176Z" fill="#B1B1B1"/>
<path d="M529.49 293.907C529.03 295.456 528.508 297.269 527.39 298.571C522.018 304.826 516.486 310.943 510.69 317.19C511.143 315.551 511.568 313.529 512.751 312.163C518.101 305.985 523.666 299.994 529.49 293.907Z" fill="#B1B1B1"/>
<path d="M178.843 215.955C175.854 215.806 172.679 214.799 169.544 214.911C164.543 215.09 159.568 216.012 154.295 216.439C157.758 214.934 161.501 212.578 165.261 212.552C169.725 212.521 174.203 214.495 178.843 215.955Z" fill="#B1B1B1"/>
<path d="M455.164 320.828C460.138 313.489 465.458 306.171 471.056 298.692C471.385 299.155 471.727 300.003 471.445 300.372C466.177 307.231 460.836 314.034 455.164 320.828Z" fill="#B1B1B1"/>
<path d="M454.582 411.084C454.645 409.955 454.737 408.529 455.471 407.619C460.573 401.286 465.809 395.061 471.339 388.769C471.134 390.054 470.861 391.587 470.005 392.654C465.048 398.838 459.954 404.913 454.582 411.084Z" fill="#B1B1B1"/>
<path d="M566.388 208.019C570.389 204.399 574.645 200.629 579.14 197.171C581.32 195.494 583.95 194.401 586.747 193.087C580.326 198.086 573.534 203.042 566.388 208.019Z" fill="#8C8C8C"/>
<path d="M340.392 298.089C346.841 300.885 353.277 303.977 359.651 307.196C360.529 307.639 361.092 308.706 361.596 309.719C356.446 307.888 351.381 306.064 346.61 303.658C344.248 302.466 342.425 300.203 340.392 298.089Z" fill="#8C8C8C"/>
<path d="M245.029 322.588C240.098 317.48 235.158 312.013 230.233 306.191C235.172 311.3 240.096 316.765 245.029 322.588Z" fill="#B1B1B1"/>
<path d="M301.512 431.132C294.975 425.828 288.602 420.19 282.204 414.215C289.868 418.147 296.802 423.285 301.512 431.132Z" fill="#B1B1B1"/>
<path d="M620.389 243.742C618.053 240.203 616.219 236.254 613.799 232.703C611.884 229.894 609.25 227.575 606.818 224.738C607.782 224.573 609.327 224.295 609.874 224.908C614.73 230.347 619.672 235.795 620.389 243.742Z" fill="#B1B1B1"/>
<path d="M508.479 424.867C508.452 425.518 508.224 426.446 507.655 426.765C501.043 430.466 496.289 436.037 491.671 442.168C493.092 439.226 494.3 435.66 496.697 433.302C500.039 430.015 504.27 427.632 508.479 424.867Z" fill="#A5A5A5"/>
<path d="M255.305 273.073C260.93 278.888 266.488 285.059 272.076 291.572C269.442 289.412 266.595 287.074 264.158 284.367C261.013 280.875 258.196 277.089 255.305 273.073Z" fill="#B1B1B1"/>
<path d="M219.036 91.0691C218.541 85.3486 218.49 79.4409 218.103 73.5551C217.968 71.4973 217.007 69.4938 216.547 67.0969C217.981 69.6991 220.196 72.61 220.398 75.6542C220.731 80.6877 219.765 85.8072 219.036 91.0691Z" fill="#B1B1B1"/>
<path d="M529.36 89.1196C530.209 89.414 531.159 89.9599 531.53 90.7706C534.369 96.9771 537.096 103.235 539.801 109.839C533.388 104.745 531.42 97.0532 529.36 89.1196Z" fill="#8C8C8C"/>
<path d="M545.159 240.834C545.671 246.265 545.804 251.753 545.799 257.703C544.942 257.542 543.576 256.886 543.604 256.299C543.855 251.156 544.355 246.025 545.159 240.834Z" fill="#B1B1B1"/>
<path d="M470.239 224.842C470.95 223.924 471.963 222.874 473.198 222.309C478.772 219.76 484.408 217.349 490.37 214.846C487.02 217.42 483.516 220.392 479.559 222.525C476.921 223.947 473.638 224.172 470.239 224.842Z" fill="#8C8C8C"/>
<path d="M481.481 287.096C483.572 283.848 485.904 280.508 488.474 277.363C490.875 274.426 493.53 271.697 496.405 268.825C495.94 270.507 495.494 272.55 494.284 273.917C490.279 278.439 485.999 282.717 481.481 287.096Z" fill="#B1B1B1"/>
<path d="M95.1416 384.086C87.6881 384.555 80.139 384.66 72.1846 384.615C71.941 384.176 72.0341 383.798 72.2751 383.613C75.2517 381.331 91.7557 381.427 95.1416 384.086Z" fill="#B1B1B1"/>
<path d="M303.656 224.09C304.48 223.182 305.463 221.757 306.82 221.073C312.497 218.21 318.286 215.569 324.39 212.832C318.914 216.18 313.099 219.573 307.233 222.876C306.264 223.422 305.075 223.577 303.656 224.09Z" fill="#8C8C8C"/>
<path d="M500.926 511.491C507.29 514.377 513.693 517.607 520.237 521.146C518.697 521.174 516.781 521.317 515.379 520.537C510.478 517.808 505.756 514.761 500.926 511.491Z" fill="#A5A5A5"/>
<path d="M340.498 419.29C342.137 422.594 343.711 426.096 344.879 429.729C345.781 432.533 346.172 435.501 346.703 438.794C345.582 437.013 344.265 434.92 343.578 432.638C342.28 428.331 341.344 423.915 340.498 419.29Z" fill="#B1B1B1"/>
<path d="M589.832 215.742C582.788 216.311 575.688 216.477 568.175 216.512C568.153 215.868 568.55 214.904 568.937 214.908C575.884 214.982 582.83 215.173 589.832 215.742Z" fill="#B1B1B1"/>
<path d="M651.767 113.827C645.164 111.173 638.588 108.172 631.875 104.848C639.594 104.888 645.887 108.752 651.767 113.827Z" fill="#8C8C8C"/>
<path d="M280.452 228.354C281.755 232.554 282.828 237.068 283.877 241.588C284.174 242.866 284.403 244.16 284.565 245.844C280.428 243.518 282.004 238.7 280.405 235.032C279.618 233.226 280.232 230.809 280.452 228.354Z" fill="#B1B1B1"/>
<path d="M201.128 221.205C206.487 225.488 211.822 230.121 217.318 235.03C216.854 235.363 215.951 235.717 215.646 235.432C210.754 230.854 205.939 226.195 201.128 221.205Z" fill="#B1B1B1"/>
<path d="M613.107 274.762C615.038 269.247 617.319 263.794 619.942 258.189C621.579 265.084 617.162 269.809 613.107 274.762Z" fill="#B1B1B1"/>
<path d="M68.7279 384.554C63.0035 387.906 57.0334 391.013 50.7283 394.205C53.9683 391.607 57.3771 388.649 61.1846 386.353C63.2693 385.095 66.0276 384.954 68.7279 384.554Z" fill="#B1B1B1"/>
<path d="M515.128 341.791C519.345 336.57 523.911 331.395 528.816 326.224C524.596 331.43 520.037 336.633 515.128 341.791Z" fill="#B1B1B1"/>
<path d="M490.906 442.289C488.973 447.785 486.688 453.22 484.087 458.821C486.032 453.4 488.294 447.814 490.906 442.289Z" fill="#A5A5A5"/>
<path d="M499.149 206.75C501.814 200.821 504.82 194.93 508.132 188.886C507.708 195.868 504.208 201.63 499.149 206.75Z" fill="#8C8C8C"/>
<path d="M558.868 44.3274C555.295 46.532 551.353 48.586 547.395 50.6077C545.819 51.4129 544.206 52.1468 542.243 52.8893C547.415 49.9649 552.954 47.0644 558.868 44.3274Z" fill="#8C8C8C"/>
<path d="M593.059 189.44C594.567 188.22 596.679 185.956 598.255 186.282C602.631 187.188 606.784 189.172 611.159 191.046C608.495 190.74 605.403 190.665 602.969 189.361C599.51 187.509 596.56 187.513 593.059 189.44Z" fill="#8C8C8C"/>
<path d="M353.205 726.133C358.366 728.095 363.473 730.411 368.766 733.054C362.316 734.22 357.567 730.735 353.205 726.133Z" fill="#B1B1B1"/>
<path d="M435.763 218.817C439.47 220.001 443.521 221.122 447.078 223.122C449.402 224.428 449.907 227.039 446.985 229.247C446.636 225.852 445.865 223.209 441.68 222.437C439.619 222.057 437.816 220.275 435.763 218.817Z" fill="#8C8C8C"/>
<path d="M195.73 225.927C190.728 223.237 185.799 220.201 180.711 216.869C186.734 217.716 192.127 220.194 195.73 225.927Z" fill="#B1B1B1"/>
<path d="M482.009 461.466C478.766 462.917 475.148 464.3 471.466 465.48C470.252 465.869 468.871 465.735 467.157 465.673C469.032 464.691 471.281 463.746 473.613 463.097C476.24 462.365 478.94 461.899 482.009 461.466Z" fill="#A5A5A5"/>
<path d="M412.196 293.827C414.796 288.513 417.742 283.237 420.996 277.828C420.714 284.347 417.254 289.445 412.196 293.827Z" fill="#8C8C8C"/>
<path d="M545.655 262.254C550.226 267.07 549.806 270.992 543.994 277.347C543.578 277.196 543.266 276.716 543.356 276.624C547.449 272.398 547.322 267.58 545.655 262.254Z" fill="#B1B1B1"/>
<path d="M634.925 390.205C631.222 394.251 627.153 398.198 622.784 402.276C624.618 396.451 629.057 392.756 634.925 390.205Z" fill="#B1B1B1"/>
<path d="M453.781 376.105C450.415 380.816 446.704 385.498 442.659 390.22C443.446 388.206 444.294 385.928 445.752 384.151C448.102 381.286 450.853 378.751 453.781 376.105Z" fill="#B1B1B1"/>
<path d="M500.472 229.903C498.912 232.985 497.096 236.18 495.113 239.269C494.227 240.65 493.006 241.816 491.609 243.135C494.236 238.784 497.192 234.378 500.472 229.903Z" fill="#8C8C8C"/>
<path d="M445.933 235.206C445.238 239.681 444.208 244.336 442.852 249.126C443.55 244.637 444.573 240.011 445.933 235.206Z" fill="#8C8C8C"/>
<path d="M276.096 387.244C279.478 390.911 282.834 394.941 286.236 399.31C282.878 395.634 279.474 391.621 276.096 387.244Z" fill="#B1B1B1"/>
<path d="M535.564 58.96C534.008 63.2935 532.111 67.6771 529.892 72.1699C531.455 67.8561 533.339 63.433 535.564 58.96Z" fill="#8C8C8C"/>
<path d="M211.14 106.788C213.115 102.603 215.439 98.4588 218.101 94.1865C216.122 98.3153 213.805 102.572 211.14 106.788Z" fill="#B1B1B1"/>
<path d="M606.621 223.988C601.972 221.97 597.405 219.604 592.681 216.934C598.46 216.519 602.812 219.616 606.621 223.988Z" fill="#B1B1B1"/>
<path d="M131.029 246.86C131.476 251.313 131.568 255.876 131.527 260.843C128.408 258.731 128.007 250.797 131.029 246.86Z" fill="#B1B1B1"/>
<path d="M224.343 242.037C228.212 245.299 232.01 248.901 235.767 252.841C231.909 249.578 228.09 245.978 224.343 242.037Z" fill="#B1B1B1"/>
<path d="M419.255 140.8C417.088 145.473 414.622 150.285 411.828 155.178C413.985 150.485 416.471 145.712 419.255 140.8Z" fill="#8C8C8C"/>
<path d="M305.592 240.824C301.233 238.401 303.941 234.099 303.364 230.066C304.265 233.207 305.005 236.795 305.592 240.824Z" fill="#8C8C8C"/>
<path d="M228.871 332.552C232.298 335.826 235.742 339.444 239.202 343.409C235.775 340.136 232.331 336.516 228.871 332.552Z" fill="#B1B1B1"/>
<path d="M540.849 280.184C538.32 284.1 535.446 287.978 532.225 291.842C534.753 287.935 537.628 284.041 540.849 280.184Z" fill="#B1B1B1"/>
<path d="M447.16 332.848C449.258 328.89 451.705 324.943 454.477 320.913C452.371 324.839 449.94 328.848 447.16 332.848Z" fill="#B1B1B1"/>
<path d="M303.631 387.052C300.688 384.141 297.891 380.873 295.116 377.252C298.018 380.164 300.897 383.429 303.631 387.052Z" fill="#B1B1B1"/>
<path d="M390.113 383.209C389.796 386.052 389.183 389.057 388.57 392.062C387.994 392.05 387.419 392.038 386.843 392.026C386.572 390.508 386.302 388.99 386.213 387.076C387.535 385.577 388.676 384.474 390.113 383.209Z" fill="#8C8C8C"/>
<path d="M266.948 430.452C270.647 432.778 274.377 435.444 278.15 438.445C274.456 436.118 270.718 433.456 266.948 430.452Z" fill="#B1B1B1"/>
<path d="M301.152 508.17C304.474 510.929 307.751 514.031 311.099 517.473C307.815 514.713 304.462 511.614 301.152 508.17Z" fill="#B1B1B1"/>
<path d="M336.53 406.268C338.141 409.496 339.511 412.962 340.732 416.809C339.15 413.629 337.72 410.067 336.53 406.268Z" fill="#B1B1B1"/>
<path d="M415.827 394.118C417.256 390.081 419.007 385.945 421.066 381.669C419.633 385.692 417.89 389.855 415.827 394.118Z" fill="#B1B1B1"/>
<path d="M415.919 199.464C418.285 202.091 420.682 205.08 423.126 208.411C420.765 205.778 418.357 202.802 415.919 199.464Z" fill="#8C8C8C"/>
<path d="M474.211 434.882C476.409 432.622 478.976 430.406 481.885 428.288C479.677 430.566 477.128 432.747 474.211 434.882Z" fill="#A5A5A5"/>
<path d="M433.576 399.954C431.924 402.99 429.929 406.042 427.607 409.162C429.264 406.144 431.248 403.057 433.576 399.954Z" fill="#B1B1B1"/>
<path d="M491.173 214.782C493.233 212.121 495.643 209.514 498.385 206.858C496.318 209.484 493.921 212.16 491.173 214.782Z" fill="#8C8C8C"/>
<path d="M216.554 64.7246C214.226 61.8716 212.12 58.7847 210.015 55.3435C212.269 58.1563 214.524 61.3236 216.554 64.7246Z" fill="#B1B1B1"/>
<path d="M421.458 239.746C419.471 236.999 417.667 233.999 415.831 230.645C417.746 233.357 419.693 236.425 421.458 239.746Z" fill="#8C8C8C"/>
<path d="M330.312 389.987C331.877 392.567 333.289 395.521 334.512 398.739C332.935 396.122 331.546 393.242 330.312 389.987Z" fill="#B1B1B1"/>
<path d="M131.409 264.325C133.003 266.862 134.392 269.667 135.673 272.836C134.11 270.331 132.658 267.463 131.409 264.325Z" fill="#B1B1B1"/>
<path d="M190.826 212.906C193.233 214.349 195.711 216.113 198.307 218.182C195.916 216.734 193.406 214.98 190.826 212.906Z" fill="#B1B1B1"/>
<path d="M251.904 137.183C250.388 140.139 248.507 143.025 246.282 145.916C247.805 142.984 249.672 140.048 251.904 137.183Z" fill="#B1B1B1"/>
<path d="M272.361 292.934C274.552 294.921 276.6 297.258 278.531 299.92C276.349 297.924 274.284 295.603 272.361 292.934Z" fill="#B1B1B1"/>
<path d="M626.777 104.068C624.833 104.476 622.711 104.559 620.311 104.42C621.988 100.656 624.286 102.107 626.777 104.068Z" fill="#8C8C8C"/>
<path d="M439.92 392.266C438.385 394.847 436.5 397.362 434.274 399.898C435.812 397.345 437.691 394.773 439.92 392.266Z" fill="#B1B1B1"/>
<path d="M557.133 214.698C559.404 212.482 562.024 210.323 564.989 208.295C562.717 210.536 560.099 212.646 557.133 214.698Z" fill="#8C8C8C"/>
<path d="M506.276 221.807C504.891 224.4 503.21 227.132 501.175 229.83C502.541 227.18 504.26 224.563 506.276 221.807Z" fill="#8C8C8C"/>
<path d="M291.076 372.558C288.974 370.605 286.878 368.298 284.762 365.647C286.855 367.603 288.968 369.904 291.076 372.558Z" fill="#B1B1B1"/>
<path d="M427.263 213.147C429.811 214.349 432.34 215.892 434.871 217.786C432.331 216.587 429.788 215.037 427.263 213.147Z" fill="#8C8C8C"/>
<path d="M281.19 413.11C279.153 412.251 277.063 411.064 274.89 409.554C276.917 410.414 279.027 411.598 281.19 413.11Z" fill="#B1B1B1"/>
<path d="M474.077 386.73C475.292 384.489 476.854 382.314 478.754 380.137C477.536 382.355 475.98 384.576 474.077 386.73Z" fill="#B1B1B1"/>
<path d="M443.166 469.825C444.372 467.597 445.922 465.411 447.811 463.212C446.603 465.423 445.056 467.645 443.166 469.825Z" fill="#A5A5A5"/>
<path d="M237.853 255.618C239.62 256.837 241.418 258.399 243.253 260.299C241.488 259.078 239.686 257.52 237.853 255.618Z" fill="#B1B1B1"/>
<path d="M647.723 384.465C646.479 385.4 644.987 386.129 643.129 386.721C644.333 385.808 645.905 385.034 647.723 384.465Z" fill="#A5A5A5"/>
<path d="M183.261 207.074C184.815 207.647 186.299 208.562 187.778 209.815C186.245 209.241 184.719 208.329 183.261 207.074Z" fill="#B1B1B1"/>
<path d="M47.8662 396.239C47.2006 397.275 46.1498 398.232 44.8055 399.307C45.5017 398.337 46.4912 397.248 47.8662 396.239Z" fill="#B1B1B1"/>
<path d="M476.059 293.69C476.625 292.128 477.534 290.63 478.779 289.148C478.212 290.693 477.307 292.224 476.059 293.69Z" fill="#B1B1B1"/>
<path d="M587.479 193.09C588.418 192.031 589.706 190.941 591.342 189.822C590.402 190.881 589.116 191.97 587.479 193.09Z" fill="#8C8C8C"/>
<path d="M43.8892 400.195C43.3054 401.376 42.3886 402.559 41.1404 403.715C41.7247 402.525 42.6405 401.361 43.8892 400.195Z" fill="#B1B1B1"/>
<path d="M223.714 298.9C222.74 298.123 221.809 296.983 220.855 295.511C221.808 296.298 222.783 297.417 223.714 298.9Z" fill="#B1B1B1"/>
<path d="M336.951 295.389C338.004 295.682 339.061 296.319 340.178 297.275C339.143 296.974 338.049 296.353 336.951 295.389Z" fill="#8C8C8C"/>
<path d="M334.406 400.878C335.295 401.578 336.029 402.587 336.638 403.904C335.759 403.203 335.006 402.195 334.406 400.878Z" fill="#B1B1B1"/>
<path d="M230.161 305.416C229.395 305.164 228.624 304.562 227.793 303.653C228.541 303.919 229.349 304.493 230.161 305.416Z" fill="#B1B1B1"/>
<path d="M307.786 437.871C307.107 437.77 306.471 437.323 305.805 436.571C306.46 436.686 307.145 437.106 307.786 437.871Z" fill="#B1B1B1"/>
<path d="M425.2 211.175C425.854 211.272 426.479 211.703 427.143 212.431C426.512 212.321 425.842 211.915 425.2 211.175Z" fill="#8C8C8C"/>
<path d="M470.213 438.889C470.33 438.205 470.786 437.556 471.553 436.884C471.426 437.548 470.989 438.236 470.213 438.889Z" fill="#A5A5A5"/>
<path d="M220.34 238.043C221.024 238.135 221.634 238.572 222.274 239.302C221.626 239.192 220.946 238.79 220.34 238.043Z" fill="#B1B1B1"/>
<path d="M305.775 435.878C305.099 435.774 304.467 435.324 303.804 434.571C304.456 434.688 305.138 435.11 305.775 435.878Z" fill="#B1B1B1"/>
<path d="M578.064 434.576C577.419 434.454 576.751 434.017 576.095 433.245C576.752 433.36 577.396 433.811 578.064 434.576Z" fill="#A5A5A5"/>
<path d="M303.776 433.879C303.097 433.748 302.464 433.272 301.819 432.483C302.478 432.625 303.149 433.08 303.776 433.879Z" fill="#B1B1B1"/>
<path d="M541.553 52.9021C541.433 53.558 541.001 54.2389 540.228 54.8997C540.339 54.2287 540.79 53.5779 541.553 52.9021Z" fill="#8C8C8C"/>
<path d="M222.336 240.044C223.02 240.135 223.629 240.571 224.272 241.299C223.624 241.191 222.943 240.79 222.336 240.044Z" fill="#B1B1B1"/>
<path d="M259.127 243.456C258.515 243.323 257.871 242.898 257.274 242.148C257.913 242.27 258.504 242.717 259.127 243.456Z" fill="#B1B1B1"/>
<path d="M490.852 243.232C490.755 243.9 490.333 244.53 489.613 245.184C489.72 244.537 490.123 243.865 490.852 243.232Z" fill="#8C8C8C"/>
<path d="M488.868 245.262C488.765 245.921 488.336 246.535 487.614 247.179C487.728 246.545 488.135 245.881 488.868 245.262Z" fill="#8C8C8C"/>
<path d="M516.565 249.178C516.684 248.527 517.103 247.843 517.864 247.209C517.759 247.887 517.312 248.516 516.565 249.178Z" fill="#8C8C8C"/>
<path d="M327.169 210.799C327.281 210.141 327.724 209.515 328.469 208.863C328.348 209.502 327.924 210.166 327.169 210.799Z" fill="#8C8C8C"/>
<path d="M225.692 300.938C225.048 300.825 224.453 300.366 223.806 299.612C224.416 299.742 225.078 300.167 225.692 300.938Z" fill="#B1B1B1"/>
<path d="M209.14 108.804C209.247 108.121 209.697 107.486 210.447 106.817C210.327 107.473 209.905 108.162 209.14 108.804Z" fill="#B1B1B1"/>
<path d="M207.151 110.826C207.255 110.13 207.701 109.485 208.453 108.813C208.337 109.484 207.915 110.18 207.151 110.826Z" fill="#B1B1B1"/>
<path d="M205.16 112.839C205.265 112.138 205.712 111.486 206.468 110.816C206.353 111.495 205.928 112.192 205.16 112.839Z" fill="#B1B1B1"/>
<path d="M203.176 114.862C203.278 114.154 203.722 113.492 204.479 112.819C204.367 113.508 203.942 114.208 203.176 114.862Z" fill="#B1B1B1"/>
<path d="M653.843 115.8C653.171 115.71 652.522 115.291 651.846 114.569C652.501 114.668 653.184 115.07 653.843 115.8Z" fill="#8C8C8C"/>
<path d="M181.146 205.151C181.857 205.214 182.536 205.626 183.243 206.353C182.551 206.278 181.832 205.889 181.146 205.151Z" fill="#B1B1B1"/>
<path d="M329.171 208.801C329.282 208.148 329.724 207.525 330.466 206.87C330.345 207.502 329.923 208.167 329.171 208.801Z" fill="#8C8C8C"/>
<path d="M313.156 520.18C313.807 520.299 314.437 520.762 315.108 521.532C314.478 521.401 313.807 520.962 313.156 520.18Z" fill="#B1B1B1"/>
<path d="M311.164 518.175C311.814 518.293 312.439 518.756 313.112 519.521C312.486 519.389 311.813 518.954 311.164 518.175Z" fill="#B1B1B1"/>
<path d="M278.18 439.154C278.859 439.264 279.499 439.721 280.16 440.489C279.501 440.367 278.821 439.934 278.18 439.154Z" fill="#B1B1B1"/>
<path d="M423.212 209.164C423.867 209.28 424.488 209.726 425.135 210.473C424.5 210.347 423.84 209.921 423.212 209.164Z" fill="#8C8C8C"/>
<path d="M539.567 54.9114C539.443 55.5675 539.007 56.247 538.231 56.9047C538.345 56.2335 538.799 55.5842 539.567 54.9114Z" fill="#8C8C8C"/>
<path d="M498.921 509.435C499.557 509.565 500.21 510.01 500.857 510.787C500.213 510.663 499.576 510.207 498.921 509.435Z" fill="#A5A5A5"/>
<path d="M496.931 507.425C497.569 507.55 498.225 507.994 498.879 508.769C498.235 508.648 497.592 508.195 496.931 507.425Z" fill="#A5A5A5"/>
<path d="M299.124 506.192C299.823 506.295 300.479 506.741 301.157 507.496C300.48 507.383 299.781 506.959 299.124 506.192Z" fill="#B1B1B1"/>
<path d="M187.877 210.533C188.503 210.639 189.156 211.053 189.82 211.79C189.19 211.689 188.546 211.265 187.877 210.533Z" fill="#B1B1B1"/>
<path d="M325.165 212.808C325.278 212.131 325.723 211.508 326.469 210.862C326.345 211.512 325.921 212.187 325.165 212.808Z" fill="#8C8C8C"/>
<path d="M537.569 56.9138C537.451 57.5735 537.019 58.2564 536.249 58.9224C536.358 58.2494 536.806 57.5932 537.569 56.9138Z" fill="#8C8C8C"/>
<path d="M44.0963 466.228C44.7603 466.346 45.4019 466.808 46.0765 467.579C45.4309 467.45 44.7524 467.011 44.0963 466.228Z" fill="#B1B1B1"/>
<path d="M301.906 465.472C302.543 465.6 303.203 466.033 303.842 466.796C303.19 466.675 302.56 466.226 301.906 465.472Z" fill="#B1B1B1"/>
<path d="M199.116 219.199C199.763 219.312 200.406 219.769 201.095 220.537C200.465 220.413 199.788 219.978 199.116 219.199Z" fill="#B1B1B1"/>
<path d="M280.166 441.164C280.845 441.274 281.488 441.73 282.152 442.499C281.491 442.378 280.811 441.945 280.166 441.164Z" fill="#B1B1B1"/>
<path d="M218.218 236.101C218.899 236.16 219.562 236.568 220.266 237.282C219.605 237.208 218.903 236.83 218.218 236.101Z" fill="#B1B1B1"/>
<path d="M513.118 343.771C513.225 343.101 513.679 342.471 514.441 341.813C514.321 342.461 513.893 343.136 513.118 343.771Z" fill="#B1B1B1"/>
<path d="M500.965 326.247C500.868 326.962 500.424 327.604 499.681 328.274C499.793 327.593 500.206 326.884 500.965 326.247Z" fill="#B1B1B1"/>
<path d="M218.872 292.806C218.187 292.697 217.536 292.242 216.867 291.472C217.535 291.591 218.22 292.026 218.872 292.806Z" fill="#B1B1B1"/>
<path d="M224.945 328.349C225.602 328.521 226.226 329.012 226.813 329.826C226.154 329.655 225.533 329.162 224.945 328.349Z" fill="#B1B1B1"/>
<path d="M498.923 328.293C498.83 329.011 498.388 329.649 497.647 330.322C497.757 329.642 498.166 328.927 498.923 328.293Z" fill="#B1B1B1"/>
<path d="M226.857 330.542C227.517 330.651 228.191 331.07 228.832 331.812C228.157 331.708 227.514 331.279 226.857 330.542Z" fill="#B1B1B1"/>
<path d="M189.14 290.165C189.813 290.271 190.462 290.723 191.15 291.48C190.498 291.36 189.807 290.935 189.14 290.165Z" fill="#B1B1B1"/>
<path d="M479.481 289.108C479.592 288.442 480.018 287.764 480.771 287.11C480.664 287.788 480.23 288.443 479.481 289.108Z" fill="#B1B1B1"/>
<path d="M191.18 292.158C191.843 292.276 192.47 292.738 193.138 293.501C192.5 293.369 191.823 292.936 191.18 292.158Z" fill="#B1B1B1"/>
<path d="M239.188 344.136C239.895 344.233 240.544 344.676 241.21 345.428C240.529 345.319 239.829 344.9 239.188 344.136Z" fill="#B1B1B1"/>
<path d="M511.11 345.757C511.217 345.089 511.67 344.46 512.429 343.804C512.309 344.45 511.883 345.123 511.11 345.757Z" fill="#B1B1B1"/>
<path d="M241.206 346.125C241.904 346.226 242.546 346.672 243.208 347.426C242.536 347.313 241.842 346.891 241.206 346.125Z" fill="#B1B1B1"/>
<path d="M509.114 347.756C509.217 347.092 509.667 346.465 510.419 345.803C510.301 346.444 509.881 347.118 509.114 347.756Z" fill="#B1B1B1"/>
<path d="M243.213 348.121C243.901 348.26 244.534 348.741 245.172 349.536C244.504 349.388 243.831 348.925 243.213 348.121Z" fill="#B1B1B1"/>
<path d="M507.119 349.766C507.223 349.099 507.673 348.474 508.423 347.81C508.303 348.45 507.883 349.129 507.119 349.766Z" fill="#B1B1B1"/>
<path d="M505.129 351.779C505.23 351.11 505.677 350.477 506.425 349.808C506.309 350.453 505.891 351.134 505.129 351.779Z" fill="#B1B1B1"/>
<path d="M514.559 251.173C514.682 250.528 515.105 249.849 515.869 249.217C515.76 249.889 515.31 250.513 514.559 251.173Z" fill="#8C8C8C"/>
<path d="M474.068 295.696C474.161 295.017 474.6 294.401 475.334 293.749C475.223 294.395 474.818 295.077 474.068 295.696Z" fill="#B1B1B1"/>
<path d="M197.179 298.164C197.822 298.285 198.442 298.75 199.114 299.515C198.495 299.38 197.826 298.944 197.179 298.164Z" fill="#B1B1B1"/>
<path d="M199.163 300.175C199.814 300.288 200.444 300.746 201.12 301.51C200.491 301.383 199.817 300.951 199.163 300.175Z" fill="#B1B1B1"/>
<path d="M227.703 302.933C227.047 302.83 226.449 302.379 225.795 301.636C226.413 301.758 227.087 302.172 227.703 302.933Z" fill="#B1B1B1"/>
<path d="M472.116 297.796C472.187 297.124 472.605 296.464 473.33 295.761C473.245 296.415 472.854 297.112 472.116 297.796Z" fill="#B1B1B1"/>
<path d="M195.176 296.164C195.83 296.28 196.454 296.74 197.127 297.5C196.5 297.369 195.824 296.938 195.176 296.164Z" fill="#B1B1B1"/>
<path d="M542.844 278.141C542.739 278.819 542.284 279.46 541.525 280.146C541.645 279.496 542.069 278.801 542.844 278.141Z" fill="#B1B1B1"/>
<path d="M193.168 294.168C193.831 294.28 194.463 294.736 195.138 295.494C194.5 295.368 193.818 294.94 193.168 294.168Z" fill="#B1B1B1"/>
<path d="M220.86 294.819C220.174 294.706 219.528 294.247 218.865 293.475C219.531 293.598 220.215 294.036 220.86 294.819Z" fill="#B1B1B1"/>
<path d="M509.948 317.332C509.835 317.984 509.371 318.584 508.612 319.25C508.744 318.638 509.17 317.96 509.948 317.332Z" fill="#B1B1B1"/>
<path d="M533.532 322.125C533.638 321.491 534.051 320.834 534.788 320.171C534.688 320.811 534.264 321.457 533.532 322.125Z" fill="#B1B1B1"/>
<path d="M531.52 291.899C531.398 292.544 530.967 293.209 530.207 293.851C530.322 293.191 530.767 292.554 531.52 291.899Z" fill="#B1B1B1"/>
<path d="M334.352 292.086C334.994 292.216 335.585 292.663 336.187 293.402C335.566 293.264 334.933 292.833 334.352 292.086Z" fill="#8C8C8C"/>
<path d="M531.532 324.13C531.651 323.496 532.075 322.842 532.825 322.206C532.712 322.852 532.274 323.481 531.532 324.13Z" fill="#B1B1B1"/>
<path d="M529.53 326.127C529.65 325.497 530.075 324.845 530.825 324.209C530.712 324.853 530.273 325.479 529.53 326.127Z" fill="#B1B1B1"/>
<path d="M49.9568 394.333C49.8352 394.997 49.3683 395.59 48.6053 396.216C48.7434 395.588 49.1774 394.925 49.9568 394.333Z" fill="#B1B1B1"/>
<path d="M280.742 360.914C280.037 360.818 279.403 360.378 278.749 359.634C279.424 359.742 280.118 360.156 280.742 360.914Z" fill="#B1B1B1"/>
<path d="M249.316 267.057C249.997 267.154 250.611 267.597 251.256 268.334C250.607 268.22 249.927 267.811 249.316 267.057Z" fill="#B1B1B1"/>
<path d="M305.803 389.865C305.117 389.724 304.483 389.243 303.841 388.451C304.507 388.602 305.182 389.063 305.803 389.865Z" fill="#B1B1B1"/>
<path d="M499.131 266.788C499.239 266.115 499.693 265.49 500.445 264.823C500.322 265.466 499.899 266.15 499.131 266.788Z" fill="#B1B1B1"/>
<path d="M247.32 265.056C248.004 265.151 248.617 265.591 249.261 266.325C248.612 266.214 247.931 265.807 247.32 265.056Z" fill="#B1B1B1"/>
<path d="M441.923 390.276C441.83 390.969 441.389 391.607 440.635 392.255C440.741 391.583 441.157 390.902 441.923 390.276Z" fill="#B1B1B1"/>
<path d="M501.131 264.785C501.237 264.117 501.688 263.491 502.439 262.822C502.317 263.462 501.897 264.145 501.131 264.785Z" fill="#B1B1B1"/>
<path d="M245.299 263.066C245.992 263.155 246.612 263.588 247.265 264.316C246.607 264.211 245.917 263.811 245.299 263.066Z" fill="#B1B1B1"/>
<path d="M497.129 268.79C497.238 268.109 497.692 267.482 498.444 266.818C498.32 267.469 497.896 268.156 497.129 268.79Z" fill="#B1B1B1"/>
<path d="M503.125 262.777C503.236 262.118 503.692 261.501 504.446 260.834C504.318 261.463 503.895 262.141 503.125 262.777Z" fill="#B1B1B1"/>
<path d="M243.287 261.07C243.99 261.16 244.618 261.593 245.271 262.325C244.601 262.221 243.907 261.817 243.287 261.07Z" fill="#B1B1B1"/>
<path d="M505.126 260.773C505.235 260.124 505.69 259.508 506.442 258.839C506.316 259.459 505.894 260.133 505.126 260.773Z" fill="#B1B1B1"/>
<path d="M507.121 258.765C507.237 258.125 507.699 257.514 508.459 256.85C508.328 257.463 507.897 258.129 507.121 258.765Z" fill="#B1B1B1"/>
<path d="M509.113 256.793C509.04 256.289 509.295 255.821 510.038 255.185C510.697 255.022 510.87 255.025 511.043 255.028C510.509 255.628 509.975 256.228 509.113 256.793Z" fill="#B1B1B1"/>
<path d="M511.248 254.837C510.87 255.025 510.697 255.022 510.265 255.011C510.524 254.391 511.042 253.778 511.888 253.213C511.961 253.723 511.707 254.184 511.248 254.837Z" fill="#8C8C8C"/>
<path d="M235.837 253.579C236.489 253.69 237.155 254.106 237.773 254.85C237.101 254.746 236.476 254.314 235.837 253.579Z" fill="#B1B1B1"/>
<path d="M512.563 253.17C512.683 252.528 513.104 251.847 513.866 251.213C513.76 251.883 513.311 252.508 512.563 253.17Z" fill="#8C8C8C"/>
<path d="M481.429 378.061C481.552 377.411 481.986 376.742 482.748 376.087C482.631 376.748 482.185 377.395 481.429 378.061Z" fill="#B1B1B1"/>
<path d="M282.75 362.912C282.04 362.818 281.402 362.38 280.747 361.635C281.427 361.742 282.125 362.154 282.75 362.912Z" fill="#B1B1B1"/>
<path d="M284.768 364.9C284.052 364.811 283.406 364.376 282.746 363.632C283.434 363.734 284.137 364.144 284.768 364.9Z" fill="#B1B1B1"/>
<path d="M293.09 374.562C292.408 374.451 291.727 374.018 291.066 373.26C291.754 373.369 292.422 373.805 293.09 374.562Z" fill="#B1B1B1"/>
<path d="M455.769 374.083C455.659 374.769 455.207 375.423 454.443 376.103C454.564 375.436 454.995 374.743 455.769 374.083Z" fill="#B1B1B1"/>
<path d="M483.419 376.068C483.538 375.4 483.974 374.721 484.737 374.064C484.622 374.743 484.178 375.4 483.419 376.068Z" fill="#B1B1B1"/>
<path d="M295.098 376.541C294.425 376.429 293.745 376 293.089 375.243C293.773 375.352 294.432 375.787 295.098 376.541Z" fill="#B1B1B1"/>
<path d="M609.135 278.81C609.231 278.099 609.67 277.446 610.419 276.778C610.312 277.465 609.895 278.166 609.135 278.81Z" fill="#B1B1B1"/>
<path d="M472.084 388.744C472.172 388.032 472.607 387.389 473.354 386.736C473.255 387.422 472.844 388.118 472.084 388.744Z" fill="#B1B1B1"/>
<path d="M137.948 276.387C138.627 276.505 139.306 276.944 139.968 277.711C139.283 277.596 138.616 277.152 137.948 276.387Z" fill="#B1B1B1"/>
<path d="M611.122 276.79C611.215 276.084 611.652 275.44 612.393 274.771C612.287 275.448 611.876 276.15 611.122 276.79Z" fill="#B1B1B1"/>
<path d="M135.972 274.353C136.641 274.487 137.307 274.941 137.954 275.723C137.28 275.591 136.625 275.132 135.972 274.353Z" fill="#B1B1B1"/>
<path d="M253.322 271.057C253.997 271.155 254.61 271.6 255.252 272.341C254.606 272.227 253.933 271.815 253.322 271.057Z" fill="#B1B1B1"/>
<path d="M251.31 269.062C251.991 269.155 252.608 269.593 253.256 270.327C252.607 270.218 251.926 269.813 251.31 269.062Z" fill="#B1B1B1"/>
<path d="M568.342 175.275C562.167 179.92 556.319 184.408 550.471 188.896C550.074 188.603 549.676 188.31 549.279 188.016C551.045 182.419 552.741 176.799 554.59 171.229C559.332 156.945 564.226 142.71 568.875 128.396C570.29 124.039 572.043 121.093 577.455 121.292C580.702 121.412 584.009 119.901 588.275 118.889C586.058 122.149 584.267 124.475 582.803 126.991C576.888 137.159 575.151 147.988 578.283 159.4C579.57 164.089 579.844 168.11 574.697 170.776C572.521 171.903 570.668 173.653 568.342 175.275Z" fill="#F0F0F0"/>
<path d="M174.624 152.354C174.567 140.422 172.034 129.532 165.117 119.617C174.68 119.814 179.708 123.042 182.111 130.843C186.151 143.955 189.533 157.278 193.839 170.298C196.402 178.048 200.202 185.39 202.91 193.637C197.97 190.01 192.898 186.548 188.129 182.709C183.608 179.07 179.31 175.135 175.123 171.114C173.916 169.955 172.676 168.007 172.753 166.486C172.986 161.891 173.857 157.329 174.624 152.354Z" fill="#EEEEEE"/>
<path d="M401.735 447.825C401.697 448.44 401.473 448.858 401.249 449.275C401.349 448.726 401.449 448.177 401.735 447.825Z" fill="#FEFEFE"/>
<path d="M605.241 105.266C605.038 105.32 604.644 105.167 604.452 104.838C604.786 104.795 604.919 104.927 605.241 105.266Z" fill="#FEFEFE"/>
<path d="M437.598 439.244C437.993 439.251 438.215 439.466 438.438 439.682C438.1 439.606 437.763 439.53 437.598 439.244Z" fill="#FEFEFE"/>
<path d="M289.102 270.91C289.383 271.006 289.531 271.231 289.679 271.456C289.45 271.511 289.22 271.566 288.848 271.463C288.707 271.305 288.969 271.04 289.102 270.91Z" fill="#FEFEFE"/>
</svg>
