<svg width="32" height="32" viewBox="0 0 32 32" fill="none" xmlns="http://www.w3.org/2000/svg">
<path d="M0 8C0 3.58172 3.58172 0 8 0H24C28.4183 0 32 3.58172 32 8V24C32 28.4183 28.4183 32 24 32H8C3.58172 32 0 28.4183 0 24V8Z" fill="#343434"/>
<path d="M16 11V16M12 13C11.4928 13.7548 11.1949 14.6306 11.1368 15.5381C11.0786 16.4455 11.2622 17.3522 11.6689 18.1656C12.0755 18.9789 12.6907 19.6698 13.4516 20.1678C14.2125 20.6657 15.0919 20.9529 16 21C16.9364 21.0193 17.8591 20.7726 18.6609 20.2884C19.4627 19.8042 20.1107 19.1025 20.5295 18.2648C20.9484 17.427 21.121 16.4876 21.0273 15.5557C20.9335 14.6238 20.5773 13.7376 20 13M9 7H23C24.1046 7 25 7.89543 25 9V23C25 24.1046 24.1046 25 23 25H9C7.89543 25 7 24.1046 7 23V9C7 7.89543 7.89543 7 9 7Z" stroke="white" stroke-linecap="round" stroke-linejoin="round"/>
</svg>
