<svg width="18" height="18" viewBox="0 0 18 18" fill="none" xmlns="http://www.w3.org/2000/svg">
<path d="M7.5 1.5H10.5M9 10.5V7.5M3 9.75C3.18365 8.29198 3.89599 6.95206 5.00194 5.98436C6.10788 5.01666 7.5305 4.48848 9 4.5C9.97053 4.50103 10.9263 4.73748 11.7854 5.18907C12.6445 5.64066 13.3812 6.2939 13.9323 7.09277C14.4835 7.89163 14.8326 8.81227 14.9497 9.77571C15.0669 10.7391 14.9486 11.7166 14.605 12.6243C14.2614 13.532 13.7027 14.3427 12.9769 14.9871C12.2511 15.6314 11.3798 16.09 10.4378 16.3236C9.49579 16.5572 8.51118 16.5588 7.56842 16.3283C6.62567 16.0977 5.7529 15.6419 5.025 15L3 13.2M6.75 12.75H3V16.5" stroke="#343434" stroke-width="1.5" stroke-linecap="round" stroke-linejoin="round"/>
</svg>
