<svg width="24" height="25" viewBox="0 0 24 25" fill="none" xmlns="http://www.w3.org/2000/svg">
<path d="M21 17.5V19.5C21 20.0304 20.7893 20.5391 20.4142 20.9142C20.0391 21.2893 19.5304 21.5 19 21.5H5C4.46957 21.5 3.96086 21.2893 3.58579 20.9142C3.21071 20.5391 3 20.0304 3 19.5V17.5M21 7.5V5.5C21 4.96957 20.7893 4.46086 20.4142 4.08579C20.0391 3.71071 19.5304 3.5 19 3.5H5C4.46957 3.5 3.96086 3.71071 3.58579 4.08579C3.21071 4.46086 3 4.96957 3 5.5V7.5M5 12.5C5 12.5 7.545 7.5 12 7.5C16.454 7.5 19 12.5 19 12.5C19 12.5 16.454 17.5 12 17.5C7.545 17.5 5 12.5 5 12.5ZM12 13.5C12.2652 13.5 12.5196 13.3946 12.7071 13.2071C12.8946 13.0196 13 12.7652 13 12.5C13 12.2348 12.8946 11.9804 12.7071 11.7929C12.5196 11.6054 12.2652 11.5 12 11.5C11.7348 11.5 11.4804 11.6054 11.2929 11.7929C11.1054 11.9804 11 12.2348 11 12.5C11 12.7652 11.1054 13.0196 11.2929 13.2071C11.4804 13.3946 11.7348 13.5 12 13.5Z" stroke="#343434" stroke-linecap="round" stroke-linejoin="round"/>
</svg>
